<?xml version="1.0" encoding="utf-8"?>
<!-- Generator: Adobe Illustrator 26.0.1, SVG Export Plug-In . SVG Version: 6.00 Build 0)  -->
<svg version="1.1" id="Layer_1" xmlns="http://www.w3.org/2000/svg" xmlns:xlink="http://www.w3.org/1999/xlink" x="0px" y="0px"
	 viewBox="0 0 500 500" style="enable-background:new 0 0 500 500;" xml:space="preserve">
<style type="text/css">
	.st0{fill:#F2F2F2;}
</style>
<g>
	<polygon class="st0" points="176.25,131.44 70.62,131.44 70.62,155.63 158.06,155.63 216.54,358.06 417.58,358.06 417.58,333.87 
		234.73,333.87 	"/>
	<path class="st0" d="M363.34,182.42c22.03-7.7,37.9-28.63,37.9-53.25c0-31.12-25.32-56.44-56.44-56.44s-56.44,25.32-56.44,56.44
		c0,24.62,15.88,45.56,37.9,53.25H214.58v24.19h215.45l-17.95,71.78H243.82v24.19h187.14L461,182.42H363.34z M304.48,129.17
		c0-22.23,18.09-40.32,40.32-40.32s40.32,18.09,40.32,40.32s-18.09,40.32-40.32,40.32S304.48,151.4,304.48,129.17z"/>
	<rect x="39.13" y="212.41" class="st0" width="110.97" height="24.19"/>
	<rect x="81.87" y="254.4" class="st0" width="80.98" height="24.19"/>
	<rect x="123.48" y="293.76" class="st0" width="50.61" height="24.19"/>
	<polygon class="st0" points="350.95,157.39 350.95,135.55 372.79,135.55 372.79,122.79 350.95,122.79 350.95,100.95 338.18,100.95 
		338.18,122.79 316.35,122.79 316.35,135.55 338.18,135.55 338.18,157.39 	"/>
	<circle class="st0" cx="253.1" cy="399.58" r="28.22"/>
	<circle class="st0" cx="375.97" cy="399.58" r="28.22"/>
</g>
</svg>
