<?xml version="1.0" encoding="utf-8"?>
<!-- Generator: Adobe Illustrator 26.0.1, SVG Export Plug-In . SVG Version: 6.00 Build 0)  -->
<svg version="1.1" id="Layer_1" xmlns="http://www.w3.org/2000/svg" xmlns:xlink="http://www.w3.org/1999/xlink" x="0px" y="0px"
	 viewBox="0 0 500 500" style="enable-background:new 0 0 500 500;" xml:space="preserve">
<style type="text/css">
	.st0{fill:#CCCCCC;}
	.st1{fill:#999999;}
	.st2{fill:#F2F2F2;}
	.st3{fill:#00A7C4;}
	.st4{fill:#FFFFFF;}
	.st5{fill:#00A7C4;stroke:#F2F2F2;stroke-width:2;stroke-miterlimit:10;}
	.st6{fill:none;stroke:#F2F2F2;stroke-width:9.594;stroke-miterlimit:10;}
	.st7{fill:none;stroke:#00A99D;stroke-width:5;stroke-miterlimit:10;}
	.st8{fill:#00A99D;}
	.st9{fill:none;stroke:#00A99D;stroke-width:1.1092;stroke-miterlimit:10;}
	.st10{fill:none;stroke:#00A99D;stroke-width:2.64;stroke-miterlimit:10;}
	.st11{fill:#139BF6;}
	.st12{fill:url(#SVGID_1_);}
	.st13{fill:#D4101D;}
	.st14{fill:#BA1A25;}
	.st15{fill:#D3101D;}
	.st16{fill:#333333;}
	.st17{fill:#29ABE2;}
</style>
<g>
	<path class="st17" d="M21,250.12C20.95,123.48,123.4,21.04,250.14,20.99C376.43,20.95,478.99,123.53,479,249.89
		c0.01,126.68-102.45,229.14-229.13,229.12C123.51,478.99,21.05,376.52,21,250.12z M169.12,228.08c2.53-0.88,4.51-1.72,6.56-2.25
		c14.27-3.71,26.28-10.64,33.27-24.19c1.56-3.01,2.83-6.91,2.34-10.12c-2.24-14.77-9.68-27.11-19.42-38.17
		c-5.23-5.94-10.98-8.87-19.67-7.5c-16.9,2.66-31.6,8.89-43.66,21.14c-6.87,6.98-10.32,15.23-10.54,25.09
		c-0.41,18.14,2.97,35.63,10.41,51.99c25.68,56.5,67.06,97.85,122.91,124.58c16.21,7.76,33.62,11.51,51.7,11.96
		c12.65,0.31,22.93-4.13,31.37-13.61c10.94-12.3,16.61-26.62,18.35-42.87c0.53-4.97,0.11-9.13-3.31-12.91
		c-11.18-12.38-24.91-20.41-41.16-23.94c-2.95-0.64-6.83-0.88-9.22,0.52c-10.84,6.33-19.85,14.54-23.84,27.07
		c-1.3,4.09-2.99,8.06-4.58,12.31C220.97,310.28,188.03,276.94,169.12,228.08z M384.26,230.99c-2.52-49.15-35.11-92.6-81.99-107.49
		c-11.72-3.72-24.4-4.61-36.72-6.16c-5.69-0.71-9.58,3.37-9.61,8.41c-0.03,4.87,3.5,8.27,9.02,8.66c0.83,0.06,1.66,0.04,2.49,0.08
		c48.17,2.4,86.52,33.79,96.94,79.8c1.68,7.4,1.86,15.15,2.65,22.74c0.53,5.04,4.02,8.57,8.68,8.57c4.68,0,8.22-3.55,8.51-8.63
		C384.35,234.99,384.26,232.98,384.26,230.99z M263.79,160.22c-7.03-0.17-11.21,2.81-11.53,8.2c-0.32,5.32,3.66,8.74,10.68,9.15
		c35.37,2.11,60.26,27,62.42,62.45c0.43,7.01,3.85,11,9.17,10.7c5.38-0.3,8.39-4.54,8.22-11.54
		C341.69,197.01,305.9,161.22,263.79,160.22z M256.04,201.06c-6.68-0.19-10.71,2.8-10.97,8.15c-0.25,5.21,3.26,8.49,9.66,9.03
		c17.22,1.46,28.15,12.41,29.82,29.9c0.61,6.34,4.01,9.96,9.09,9.68c5.13-0.29,8.31-4.37,8.2-10.54
		C301.41,223.11,280.25,201.76,256.04,201.06z"/>
	<path class="st2" d="M169.12,228.08c18.91,48.86,51.84,82.2,101.51,99.1c1.59-4.25,3.28-8.22,4.58-12.31
		c3.99-12.53,13-20.74,23.84-27.07c2.39-1.39,6.27-1.16,9.22-0.52c16.25,3.52,29.98,11.56,41.16,23.94
		c3.42,3.78,3.84,7.94,3.31,12.91c-1.74,16.24-7.41,30.57-18.35,42.87c-8.44,9.48-18.71,13.93-31.37,13.61
		c-18.08-0.45-35.5-4.2-51.7-11.96c-55.85-26.74-97.23-68.09-122.91-124.58c-7.44-16.37-10.82-33.85-10.41-51.99
		c0.22-9.86,3.67-18.11,10.54-25.09c12.06-12.25,26.77-18.48,43.66-21.14c8.69-1.37,14.44,1.56,19.67,7.5
		c9.74,11.07,17.18,23.41,19.42,38.17c0.49,3.21-0.78,7.1-2.34,10.12c-6.99,13.54-19,20.48-33.27,24.19
		C173.63,226.36,171.65,227.2,169.12,228.08z"/>
	<path class="st2" d="M384.26,230.99c0,2,0.09,4-0.02,5.99c-0.29,5.08-3.83,8.63-8.51,8.63c-4.66,0-8.16-3.53-8.68-8.57
		c-0.79-7.59-0.98-15.34-2.65-22.74c-10.42-46-48.77-77.4-96.94-79.8c-0.83-0.04-1.67-0.02-2.49-0.08
		c-5.52-0.39-9.05-3.79-9.02-8.66c0.03-5.05,3.92-9.13,9.61-8.41c12.32,1.54,25,2.44,36.72,6.16
		C349.15,138.39,381.73,181.84,384.26,230.99z"/>
	<path class="st2" d="M263.79,160.22c42.11,0.99,77.9,36.79,78.95,78.97c0.17,7-2.84,11.23-8.22,11.54c-5.32,0.3-8.74-3.7-9.17-10.7
		c-2.16-35.44-27.04-60.34-62.42-62.45c-7.02-0.42-11-3.83-10.68-9.15C252.58,163.03,256.76,160.06,263.79,160.22z"/>
	<path class="st2" d="M256.04,201.06c24.21,0.7,45.37,22.05,45.8,46.22c0.11,6.16-3.07,10.25-8.2,10.54
		c-5.09,0.29-8.49-3.34-9.09-9.68c-1.67-17.49-12.59-28.45-29.82-29.9c-6.4-0.54-9.91-3.82-9.66-9.03
		C245.32,203.86,249.35,200.86,256.04,201.06z"/>
</g>
</svg>
