<?xml version="1.0" encoding="utf-8"?>
<!-- Generator: Adobe Illustrator 26.0.1, SVG Export Plug-In . SVG Version: 6.00 Build 0)  -->
<svg version="1.1" id="Layer_1" xmlns="http://www.w3.org/2000/svg" xmlns:xlink="http://www.w3.org/1999/xlink" x="0px" y="0px"
	 viewBox="0 0 500 500" style="enable-background:new 0 0 500 500;" xml:space="preserve">
<style type="text/css">
	.st0{fill:#FFFFFF;}
</style>
<g>
	<g>
		<g>
			<path class="st0" d="M28.11,256.38c-0.75-2-1.14-4.14-1.14-6.39c0-2.52,0.48-4.9,1.41-7.1c0.94-2.2,2.25-4.15,3.89-5.79
				c1.66-1.66,3.62-2.98,5.82-3.92c2.19-0.94,4.57-1.41,7.07-1.41c1.97,0,3.85,0.28,5.59,0.83c1.46,0.48,2.86,1.14,4.15,1.97
				l-3.27,5.66c-0.8-0.44-1.66-0.78-2.57-1.04c-1.23-0.35-2.54-0.54-3.89-0.54c-1.47,0-2.91,0.29-4.29,0.86
				c-1.37,0.57-2.61,1.39-3.69,2.43c-1.08,1.08-1.86,2.33-2.34,3.74c-0.47,1.38-0.71,2.82-0.71,4.29c0,0.25,0.01,0.5,0.02,0.76
				L28.11,256.38z"/>
			<path class="st0" d="M45.17,232.65c1.88,0,3.67,0.27,5.3,0.79c1.13,0.37,2.22,0.86,3.24,1.45l-2.43,4.2
				c-0.63-0.29-1.29-0.53-1.97-0.72c-1.32-0.38-2.71-0.57-4.14-0.57c-1.59,0-3.14,0.31-4.63,0.93c-1.47,0.61-2.8,1.49-3.99,2.63
				c-1.16,1.16-2.01,2.53-2.54,4.07c-0.5,1.47-0.76,3.01-0.76,4.57c0,0.13,0,0.26,0.01,0.39l-4.75,4.42
				c-0.44-1.53-0.66-3.14-0.66-4.81c0-2.4,0.45-4.67,1.34-6.75c0.9-2.1,2.14-3.95,3.71-5.51c1.58-1.58,3.45-2.84,5.54-3.73
				C40.52,233.1,42.78,232.65,45.17,232.65 M45.17,230.89c-2.63,0-5.1,0.49-7.42,1.48c-2.31,0.99-4.34,2.36-6.09,4.11
				c-1.73,1.73-3.09,3.75-4.08,6.07c-0.99,2.31-1.48,4.79-1.48,7.44c0,2.63,0.49,5.1,1.48,7.42c0.07,0.16,0.14,0.32,0.21,0.48
				l7.29-6.78c-0.03-0.37-0.05-0.74-0.05-1.11c0-1.38,0.22-2.71,0.66-4s1.15-2.42,2.12-3.39c1.01-0.97,2.15-1.72,3.42-2.25
				c1.27-0.53,2.59-0.79,3.95-0.79c1.27,0,2.49,0.17,3.66,0.5c1.15,0.32,2.19,0.79,3.12,1.4l4.13-7.15
				c-1.55-1.09-3.24-1.94-5.06-2.54C49.18,231.18,47.23,230.89,45.17,230.89L45.17,230.89z"/>
		</g>
		<path class="st0" d="M34.96,256.51c0.45,0.73,0.99,1.42,1.62,2.05c1.16,1.12,2.49,2,3.96,2.61c1.48,0.62,3.04,0.93,4.62,0.93
			c2.08,0,4.12-0.45,6.09-1.34l2.45,4.24c-1.02,0.59-2.11,1.07-3.22,1.44c-1.65,0.53-3.44,0.79-5.32,0.79
			c-2.38,0-4.64-0.45-6.73-1.34c-2.1-0.89-3.96-2.14-5.55-3.71c-0.65-0.64-1.25-1.34-1.8-2.1L34.96,256.51 M35.55,253.56l-6.76,6.25
			c0.81,1.34,1.77,2.55,2.86,3.63c1.75,1.73,3.78,3.09,6.09,4.08c2.31,0.99,4.79,1.48,7.42,1.48c2.07,0,4.02-0.29,5.86-0.87
			c1.82-0.6,3.51-1.45,5.06-2.54l-4.13-7.15c-2.19,1.27-4.45,1.91-6.78,1.91c-1.36,0-2.68-0.27-3.95-0.79
			c-1.27-0.53-2.41-1.28-3.42-2.25c-0.97-0.97-1.68-2.09-2.12-3.37C35.65,253.81,35.6,253.69,35.55,253.56L35.55,253.56z"/>
		<path class="st0" d="M67.19,233.07v15.69l-5.43-5.03v-10.66H67.19 M68.96,231.31H60v13.19l8.95,8.29V231.31L68.96,231.31z"/>
		<polygon class="st0" points="68.96,255.71 68.96,268.59 60,268.59 60,247.39 		"/>
		<path class="st0" d="M97.91,253.96c-0.62,0.42-1.29,0.78-2.01,1.06l6.99,13.62H92.8l-6.46-12.58h-1.25l-10.73-9.96V232.9
			l8.95,8.32v6.15h7.53c0.99,0,1.83-0.37,2.52-1.11c0.67-0.74,1.01-1.6,1.01-2.57c0-0.97-0.34-1.83-1.01-2.57
			c-0.69-0.74-1.53-1.11-2.52-1.11h-5.75l-9.35-8.69h15.55c1.59,0.07,3.1,0.4,4.53,0.98c1.43,0.58,2.7,1.43,3.81,2.54
			c2.45,2.45,3.68,5.4,3.68,8.85c0,1.66-0.31,3.25-0.93,4.77c-0.64,1.52-1.54,2.88-2.7,4.08C99.1,253.06,98.51,253.54,97.91,253.96z
			"/>
		<path class="st0" d="M76.12,253.02l5.43,5.03v8.78h-5.43V253.02 M74.36,248.98v19.6h8.95v-11.31L74.36,248.98L74.36,248.98z"/>
		<path class="st0" d="M109.43,257.88c-0.07-0.16-0.14-0.32-0.21-0.48c-0.99-2.31-1.48-4.79-1.48-7.42c0-2.65,0.49-5.13,1.48-7.44
			c0.99-2.31,2.35-4.34,4.08-6.07c1.75-1.75,3.78-3.12,6.09-4.11c2.31-0.99,4.79-1.48,7.42-1.48c2.07,0,4.02,0.29,5.86,0.87
			c1.82,0.6,3.51,1.45,5.06,2.54l-4.13,7.15c-0.93-0.62-1.98-1.09-3.12-1.4c-1.17-0.34-2.38-0.5-3.66-0.5
			c-1.36,0-2.68,0.27-3.95,0.79c-1.27,0.53-2.41,1.28-3.42,2.25c-0.97,0.97-1.68,2.1-2.12,3.39c-0.44,1.29-0.66,2.62-0.66,4
			c0,0.37,0.02,0.74,0.05,1.11L109.43,257.88z"/>
		<path class="st0" d="M116.6,256.51c0.45,0.73,0.99,1.42,1.62,2.05c1.16,1.12,2.49,2,3.96,2.61c1.48,0.62,3.04,0.93,4.62,0.93
			c2.08,0,4.12-0.45,6.09-1.34l2.45,4.24c-1.02,0.59-2.11,1.07-3.22,1.44c-1.65,0.53-3.44,0.79-5.32,0.79
			c-2.38,0-4.64-0.45-6.73-1.34c-2.1-0.89-3.96-2.14-5.55-3.71c-0.65-0.64-1.25-1.34-1.8-2.1L116.6,256.51 M117.2,253.56l-6.76,6.25
			c0.81,1.34,1.77,2.55,2.86,3.63c1.75,1.73,3.78,3.09,6.09,4.08c2.31,0.99,4.79,1.48,7.42,1.48c2.07,0,4.02-0.29,5.86-0.87
			c1.82-0.6,3.51-1.45,5.06-2.54l-4.13-7.15c-2.19,1.27-4.45,1.91-6.78,1.91c-1.36,0-2.68-0.27-3.95-0.79
			c-1.27-0.53-2.41-1.28-3.42-2.25c-0.97-0.97-1.68-2.09-2.12-3.37C117.29,253.81,117.25,253.69,117.2,253.56L117.2,253.56z"/>
		<path class="st0" d="M148.84,233.07v21.34c0,1.07,0.2,2.07,0.57,2.96c0.37,0.93,0.91,1.75,1.59,2.43
			c0.67,0.69,1.47,1.24,2.37,1.64c0.91,0.4,1.91,0.6,2.98,0.6c1.03,0,2.02-0.2,2.94-0.59c0.91-0.39,1.72-0.93,2.41-1.62
			c0.2-0.2,0.4-0.42,0.57-0.64l3.82,3.53c-0.22,0.24-0.45,0.48-0.69,0.72c-1.19,1.2-2.58,2.14-4.14,2.79
			c-1.54,0.65-3.19,0.97-4.91,0.97c-1.7,0-3.35-0.32-4.89-0.95c-1.53-0.63-2.91-1.57-4.13-2.78c-1.21-1.2-2.18-2.6-2.89-4.18
			c-0.69-1.52-1.04-3.16-1.04-4.87v-21.34H148.84 M150.6,231.31h-8.95v23.1c0,1.96,0.4,3.83,1.19,5.59c0.8,1.79,1.88,3.36,3.26,4.72
			c1.38,1.38,2.94,2.43,4.69,3.15c1.77,0.72,3.62,1.08,5.56,1.08c1.96,0,3.82-0.37,5.59-1.11c1.78-0.74,3.36-1.8,4.72-3.18
			c0.69-0.67,1.3-1.39,1.83-2.15l-6.68-6.17c-0.04,0.12-0.08,0.25-0.13,0.37c-0.28,0.71-0.69,1.33-1.22,1.85
			c-0.53,0.53-1.15,0.95-1.85,1.25c-0.71,0.3-1.46,0.45-2.25,0.45c-0.83,0-1.59-0.15-2.28-0.45c-0.69-0.3-1.29-0.72-1.8-1.25
			c-0.53-0.53-0.94-1.15-1.22-1.85c-0.3-0.71-0.45-1.47-0.45-2.31V231.31L150.6,231.31z"/>
		<path class="st0" d="M169.57,260.66l-7.47-6.94v-22.41h8.95v23.1c0,1.96-0.39,3.82-1.17,5.56
			C169.8,260.2,169.69,260.44,169.57,260.66z"/>
		<path class="st0" d="M183.68,233.07v15.69l-5.43-5.03v-10.66H183.68 M185.44,231.31h-8.95v13.19l8.95,8.29V231.31L185.44,231.31z"
			/>
		<polygon class="st0" points="185.44,255.71 185.44,268.59 176.49,268.59 176.49,247.39 		"/>
		<polygon class="st0" points="198,231.31 208.62,241.17 208.62,268.59 199.67,268.59 199.67,240 189.52,240 189.52,231.31 		"/>
		<path class="st0" d="M217.06,233.07v5.16h-5.89l-5.56-5.16H217.06 M218.82,231.31h-17.7l9.35,8.69h8.34V231.31L218.82,231.31z"/>
		<path class="st0" d="M262.5,234.81c2.03,2.33,3.14,5.65,3.34,9.96c0,2.24-0.38,4.2-1.14,5.86c-0.76,1.66-1.73,3.06-2.91,4.21
			c-1.17,1.13-2.47,1.98-3.92,2.54c-1.45,0.56-2.86,0.85-4.24,0.85h-7.81v10.36h-8.95v-9.46l10.33-9.59h5.62
			c0.76,0,1.4-0.15,1.94-0.45c0.53-0.32,0.94-0.72,1.24-1.22c0.3-0.48,0.53-0.99,0.69-1.54c0.14-0.55,0.21-1.07,0.21-1.56
			c0-0.48-0.07-1-0.21-1.56c-0.16-0.55-0.39-1.07-0.69-1.56c-0.3-0.49-0.72-0.89-1.24-1.19c-0.53-0.3-1.18-0.45-1.94-0.45h-5.35
			l-9.35-8.69h15.68C257.55,231.31,260.45,232.48,262.5,234.81z"/>
		<path class="st0" d="M238.62,237.08l5.43,5.04v5.03l-5.43,5.04V237.08 M236.86,233.03v23.21l8.95-8.32v-6.57L236.86,233.03
			L236.86,233.03z"/>
		<path class="st0" d="M278.95,235.58l3.94,3.65c-1.05,0.56-2.02,1.26-2.93,2.12c-1.16,1.16-2.01,2.53-2.51,4.03
			c-0.5,1.45-0.76,2.99-0.76,4.58c0,1.57,0.26,3.1,0.75,4.53c0.51,1.53,1.36,2.89,2.55,4.09c1.18,1.11,2.51,1.99,3.97,2.6
			c1.47,0.62,3.03,0.93,4.63,0.93c0.94,0,1.87-0.11,2.78-0.33l4.28,3.98c-0.1,0.05-0.21,0.1-0.31,0.14
			c-2.08,0.89-4.35,1.34-6.75,1.34c-2.38,0-4.66-0.45-6.75-1.34c-2.09-0.89-3.95-2.14-5.52-3.71c-1.56-1.55-2.82-3.39-3.73-5.48
			c-0.89-2.08-1.34-4.35-1.34-6.75c0-2.38,0.45-4.64,1.34-6.71c0.91-2.1,2.17-3.96,3.74-5.52
			C277.13,236.93,278.01,236.21,278.95,235.58 M279.17,233.38c-1.5,0.85-2.86,1.88-4.08,3.1c-1.73,1.73-3.1,3.75-4.11,6.07
			c-0.99,2.31-1.48,4.79-1.48,7.42c0,2.65,0.49,5.13,1.48,7.44c1.01,2.31,2.38,4.33,4.11,6.04c1.73,1.73,3.75,3.09,6.07,4.08
			c2.33,0.99,4.81,1.48,7.45,1.48c2.65,0,5.13-0.49,7.44-1.48c0.92-0.4,1.79-0.86,2.62-1.38l-6.81-6.33
			c-1.06,0.35-2.15,0.53-3.26,0.53c-1.38,0-2.69-0.27-3.95-0.79c-1.27-0.53-2.42-1.28-3.44-2.25c-0.97-0.97-1.67-2.09-2.09-3.37
			c-0.44-1.27-0.66-2.6-0.66-3.97c0-1.39,0.22-2.73,0.66-4c0.42-1.27,1.12-2.39,2.09-3.37c1.02-0.97,2.17-1.72,3.44-2.25
			c0.48-0.21,0.97-0.38,1.48-0.5L279.17,233.38L279.17,233.38z"/>
		<path class="st0" d="M306.22,242.54c0.99,2.31,1.48,4.79,1.48,7.42c0,2.65-0.49,5.13-1.48,7.44c-1.01,2.31-2.38,4.33-4.11,6.04
			c-0.53,0.53-1.08,1.02-1.64,1.46l-6.54-6.04c0.74-0.44,1.43-0.96,2.07-1.56c0.97-0.97,1.67-2.09,2.09-3.37
			c0.44-1.27,0.66-2.6,0.66-3.97c0-1.39-0.22-2.73-0.66-4c-0.42-1.27-1.12-2.39-2.09-3.37c-1.02-0.97-2.16-1.72-3.42-2.25
			c-1.17-0.48-2.38-0.74-3.63-0.79l-7.76-7.18c2.31-0.99,4.79-1.48,7.42-1.48c2.65,0,5.13,0.49,7.44,1.48
			c2.31,0.99,4.33,2.36,6.07,4.11C303.84,238.21,305.21,240.23,306.22,242.54z"/>
		<path class="st0" d="M318.81,233.07v15.69l-5.43-5.03v-10.66H318.81 M320.58,231.31h-8.95v13.19l8.95,8.29V231.31L320.58,231.31z"
			/>
		<polygon class="st0" points="320.58,255.71 320.58,268.59 311.62,268.59 311.62,247.39 		"/>
		<path class="st0" d="M334.81,233.07l21.34,33.75h-6.32l-21.41-33.75H334.81 M335.78,231.31h-9.8v1.19l22.89,36.08h9.75v-1.17
			L335.78,231.31L335.78,231.31z"/>
		<polygon class="st0" points="325.98,236.48 334.91,250.7 334.91,268.59 325.98,268.59 		"/>
		<polygon class="st0" points="358.62,263.45 349.69,249.22 349.69,231.31 358.62,231.31 		"/>
		<polygon class="st0" points="371.23,231.31 381.85,241.17 381.85,268.59 372.89,268.59 372.89,240 362.75,240 362.75,231.31 		"/>
		<path class="st0" d="M390.29,233.07v5.16h-5.89l-5.56-5.16H390.29 M392.05,231.31h-17.7l9.35,8.69h8.34V231.31L392.05,231.31z"/>
		<g>
			<polygon class="st0" points="410.81,234.9 418,241.58 418,258.21 410.81,264.89 			"/>
			<path class="st0" d="M411.69,236.92l5.43,5.04v15.87l-5.43,5.04V236.92 M409.93,232.87v34.04l8.95-8.32v-17.41L409.93,232.87
				L409.93,232.87z"/>
		</g>
		<path class="st0" d="M426.54,233.1c1.26,0,2.47,0.24,3.6,0.71c1.15,0.49,2.15,1.17,3.02,2.03c0.85,0.82,1.53,1.81,2.01,2.92
			c0.47,1.1,0.71,2.3,0.71,3.57c0,0.83-0.19,1.62-0.56,2.4c-0.47,0.95-0.95,1.77-1.44,2.45l-0.93,1.3l1.2,1.06
			c0.88,0.78,1.67,1.85,2.34,3.2c0.65,1.3,0.98,2.62,0.98,3.93c0,1.23-0.2,2.49-0.59,3.77c-0.35,1.18-0.94,2.22-1.81,3.18
			c-0.83,0.95-1.94,1.73-3.31,2.33c-1.37,0.6-3.13,0.91-5.22,0.91h-10.83l5.56-5.16h5.27c0.66,0,1.3-0.19,1.9-0.59
			c0.49-0.33,0.92-0.74,1.27-1.23c0.32-0.45,0.59-0.95,0.8-1.53c0.18-0.55,0.28-1.11,0.28-1.67c0-0.53-0.09-1.09-0.27-1.65
			l-0.01-0.05l-0.02-0.05c-0.19-0.5-0.44-0.97-0.77-1.46c-0.34-0.47-0.75-0.88-1.23-1.23c-0.59-0.42-1.27-0.65-1.95-0.65h-3.75
			v-5.14h3.75c1.11,0,2.09-0.45,2.88-1.33c0.68-0.79,1.03-1.75,1.03-2.79c0-1.01-0.36-1.97-1.05-2.79
			c-0.76-0.86-1.75-1.31-2.85-1.31h-5.11l-5.55-5.14H426.54 M426.54,231.34h-15.15l9.35,8.66h5.8c0.6,0,1.11,0.24,1.54,0.72
			c0.41,0.48,0.61,1.02,0.61,1.61c0,0.62-0.2,1.17-0.61,1.64c-0.42,0.48-0.94,0.72-1.54,0.72h-5.51v8.66h5.51
			c0.32,0,0.63,0.11,0.93,0.32c0.32,0.23,0.59,0.5,0.82,0.82c0.23,0.34,0.41,0.69,0.56,1.06c0.12,0.39,0.19,0.76,0.19,1.11
			c0,0.37-0.06,0.74-0.19,1.11c-0.14,0.39-0.33,0.74-0.56,1.06c-0.23,0.32-0.5,0.58-0.82,0.8c-0.3,0.19-0.61,0.29-0.93,0.29h-5.96
			l-9.35,8.69h15.31c2.35,0,4.33-0.35,5.93-1.06c1.61-0.71,2.91-1.63,3.92-2.78c1.02-1.13,1.75-2.41,2.17-3.84
			c0.44-1.43,0.66-2.85,0.66-4.27c0-1.59-0.39-3.16-1.17-4.72c-0.78-1.55-1.69-2.8-2.75-3.73c0.55-0.76,1.08-1.66,1.59-2.7
			c0.49-1.02,0.74-2.08,0.74-3.18c0-1.52-0.28-2.94-0.85-4.26c-0.58-1.34-1.39-2.51-2.41-3.5c-1.01-1.01-2.19-1.8-3.55-2.38
			C429.47,231.62,428.04,231.34,426.54,231.34L426.54,231.34z"/>
		<path class="st0" d="M445.79,236.83l5.43,5.03v16.16l-5.43,5.04V236.83 M444.02,232.8v34.31l8.95-8.32v-17.7L444.02,232.8
			L444.02,232.8z"/>
		<g>
			<path class="st0" d="M447.76,267.7l7.47-6.9h0.03c1.48,0,2.89-0.24,4.2-0.72c1.35-0.48,2.57-1.27,3.59-2.34
				c1.05-1.01,1.81-2.21,2.22-3.53c0.38-1.25,0.57-2.62,0.57-4.08c0-1.45-0.19-2.87-0.56-4.23c-0.41-1.42-1.16-2.69-2.23-3.78
				c-1.03-1.03-2.23-1.79-3.59-2.28c-1.3-0.49-2.72-0.74-4.19-0.74l-7.45-6.93h7.45c2.43,0,4.75,0.48,6.91,1.41
				c2.17,0.92,4.07,2.2,5.66,3.79c1.61,1.59,2.89,3.49,3.81,5.66c0.92,2.16,1.39,4.49,1.39,6.94c0,2.43-0.47,4.74-1.38,6.88
				c-0.92,2.15-2.21,4.04-3.81,5.63c-1.6,1.61-3.5,2.9-5.66,3.82c-2.16,0.92-4.48,1.39-6.91,1.39H447.76z"/>
			<path class="st0" d="M455.26,233.07c2.31,0,4.51,0.45,6.57,1.34c2.06,0.88,3.87,2.09,5.39,3.6c1.52,1.51,2.74,3.32,3.62,5.37
				c0.87,2.05,1.32,4.27,1.32,6.59c0,2.31-0.44,4.51-1.31,6.54c-0.88,2.04-2.1,3.84-3.63,5.36c-1.51,1.53-3.32,2.74-5.37,3.62
				c-2.05,0.87-4.26,1.32-6.57,1.32h-5.24l5.56-5.14c1.46-0.03,2.86-0.29,4.16-0.76c1.49-0.53,2.81-1.39,3.89-2.51
				c1.18-1.14,2.01-2.46,2.48-3.94c0.4-1.33,0.61-2.78,0.61-4.33c0-1.53-0.2-3.03-0.6-4.49c-0.45-1.55-1.27-2.94-2.46-4.14
				c-1.12-1.12-2.43-1.95-3.89-2.47c-1.31-0.49-2.71-0.76-4.16-0.8l-5.56-5.17H455.26 M455.26,231.31h-9.7l9.35,8.69h0.34
				c1.38,0,2.68,0.23,3.89,0.69c1.24,0.44,2.32,1.13,3.26,2.07c0.97,0.99,1.64,2.12,2.01,3.39c0.35,1.29,0.53,2.62,0.53,4
				s-0.18,2.65-0.53,3.82c-0.37,1.18-1.04,2.24-2.01,3.18c-0.94,0.97-2.02,1.68-3.26,2.12c-1.22,0.44-2.52,0.66-3.89,0.66h-0.37
				l-9.38,8.66h9.75c2.56,0,4.98-0.49,7.26-1.46c2.28-0.97,4.26-2.31,5.93-4c1.7-1.68,3.03-3.65,4-5.91
				c0.97-2.26,1.46-4.67,1.46-7.23c0-2.58-0.49-5.01-1.46-7.29c-0.97-2.28-2.31-4.26-4-5.93c-1.68-1.68-3.66-3-5.93-3.97
				C460.24,231.81,457.82,231.31,455.26,231.31L455.26,231.31z"/>
		</g>
	</g>
</g>
</svg>
