<?xml version="1.0" encoding="utf-8"?>
<!-- Generator: Adobe Illustrator 26.0.1, SVG Export Plug-In . SVG Version: 6.00 Build 0)  -->
<svg version="1.1" id="Layer_1" xmlns="http://www.w3.org/2000/svg" xmlns:xlink="http://www.w3.org/1999/xlink" x="0px" y="0px"
	 viewBox="0 0 500 500" style="enable-background:new 0 0 500 500;" xml:space="preserve">
<style type="text/css">
	.st0{fill:#CCCCCC;}
	.st1{fill:#999999;}
	.st2{fill:#F2F2F2;}
	.st3{fill:#00A7C4;}
	.st4{fill:#FFFFFF;}
	.st5{fill:#00A7C4;stroke:#F2F2F2;stroke-width:2;stroke-miterlimit:10;}
	.st6{fill:none;stroke:#F2F2F2;stroke-width:9.594;stroke-miterlimit:10;}
	.st7{fill:none;stroke:#00A99D;stroke-width:5;stroke-miterlimit:10;}
	.st8{fill:#00A99D;}
	.st9{fill:none;stroke:#00A99D;stroke-width:1.1092;stroke-miterlimit:10;}
	.st10{fill:none;stroke:#00A99D;stroke-width:2.64;stroke-miterlimit:10;}
	.st11{fill:#139BF6;}
	.st12{fill:url(#SVGID_1_);}
	.st13{fill:#D4101D;}
	.st14{fill:#BA1A25;}
	.st15{fill:#D3101D;}
	.st16{fill:#333333;}
	.st17{fill:#29ABE2;}
	.st18{fill:#39B54A;}
	.st19{fill:#0083FD;}
	.st20{fill:#FAFCFE;}
	.st21{fill:#3399FF;}
	.st22{fill:#0979BD;}
	.st23{fill:#FEFEFE;}
	.st24{fill:#FBFDFD;}
</style>
<g>
	<path class="st16" d="M238.48,34c7.92,0,15.84,0,23.76,0c0.9,0.22,1.8,0.5,2.72,0.65c12.96,2.04,26.21,2.98,38.84,6.26
		c50.86,13.23,91.73,41.49,122.36,84.22c22.48,31.37,35.23,66.51,38.92,104.87c1.74,18.07,0.96,36.11-1.86,54.09
		c-3.86,24.55-11.68,47.74-23.68,69.44c-23.49,42.44-57.4,73.75-101.62,93.74c-18.82,8.51-38.48,14.17-59.02,16.65
		c-5.79,0.7-11.58,1.38-17.38,2.08c-7.92,0-15.84,0-23.76,0c-0.9-0.22-1.8-0.5-2.72-0.65c-12.96-2.04-26.21-2.97-38.84-6.26
		c-50.97-13.29-91.92-41.61-122.55-84.53c-22.36-31.32-35.04-66.35-38.72-104.58c-1.75-18.19-0.98-36.35,1.91-54.44
		c3.91-24.54,11.77-47.73,23.81-69.4c23.36-42.06,57-73.16,100.8-93.12c19.01-8.66,38.88-14.44,59.67-16.94
		C226.9,35.38,232.69,34.69,238.48,34z M250.22,157.88c0,0.07,0,0.14,0,0.2c-42.22,0-84.45-0.01-126.67,0.01
		c-9.63,0-14.4,4.72-14.4,14.27c-0.01,51.71-0.01,103.41,0,155.12c0,9.65,4.7,14.43,14.23,14.43c84.45,0.01,168.89,0.01,253.34,0
		c9.36,0,14.13-4.79,14.13-14.17c0.02-51.83,0.02-103.65,0-155.48c0-9.43-4.98-14.38-14.35-14.38
		C334.41,157.88,292.32,157.88,250.22,157.88z"/>
	<path class="st4" d="M250.22,157.88c42.1,0,84.19,0,126.29,0c9.37,0,14.34,4.94,14.35,14.38c0.02,51.83,0.02,103.65,0,155.48
		c0,9.38-4.77,14.17-14.13,14.17c-84.45,0.01-168.89,0.01-253.34,0c-9.53,0-14.23-4.78-14.23-14.43
		c-0.01-51.71-0.01-103.41,0-155.12c0-9.55,4.77-14.26,14.4-14.27c42.22-0.01,84.45-0.01,126.67-0.01
		C250.22,158.02,250.22,157.95,250.22,157.88z M269.33,260.04c-5.65,4.36-11.03,8.54-16.44,12.69c-3.45,2.64-6.56,2.68-10.09-0.01
		c-4.19-3.19-8.5-6.26-12.37-9.81c-2.51-2.3-4.12-1.95-6.63-0.08c-24.56,18.29-49.23,36.45-73.85,54.67
		c-6.08,4.5-12.12,9.05-19,14.2c80.73,1.03,160.35,2.04,241.03,3.07C337.27,309.5,303.39,284.83,269.33,260.04z M139.68,172.54
		c-0.04,0.33-0.07,0.66-0.11,0.99c36.06,28.63,72.12,57.27,108.27,85.97c37.43-29.06,74.73-58.03,111.99-86.96
		C286.26,172.54,212.97,172.54,139.68,172.54z M377.15,176.28c-32.41,25.17-64.43,50.05-96.69,75.1
		c32.4,23.55,64.34,46.77,96.69,70.29C377.15,273.04,377.15,225.01,377.15,176.28z M216.18,251.69
		c-31.05-24.64-61.99-49.19-93.22-73.98c0,47.92,0,95.17,0,142.87C154.23,297.47,185.1,274.66,216.18,251.69z"/>
	<path class="st16" d="M269.33,260.04c34.06,24.8,67.94,49.47,102.65,74.74c-80.69-1.03-160.3-2.04-241.03-3.07
		c6.89-5.15,12.92-9.7,19-14.2c24.62-18.21,49.29-36.37,73.85-54.67c2.51-1.87,4.12-2.23,6.63,0.08c3.87,3.55,8.18,6.62,12.37,9.81
		c3.53,2.69,6.65,2.65,10.09,0.01C258.3,268.58,263.69,264.4,269.33,260.04z"/>
	<path class="st16" d="M139.68,172.54c73.29,0,146.57,0,220.15,0c-37.25,28.93-74.56,57.9-111.99,86.96
		c-36.15-28.7-72.21-57.34-108.27-85.97C139.61,173.2,139.65,172.87,139.68,172.54z"/>
	<path class="st16" d="M377.15,176.28c0,48.73,0,96.76,0,145.39c-32.36-23.52-64.29-46.73-96.69-70.29
		C312.72,226.33,344.74,201.45,377.15,176.28z"/>
	<path class="st16" d="M216.18,251.69c-31.08,22.97-61.95,45.78-93.22,68.89c0-47.7,0-94.95,0-142.87
		C154.19,202.49,185.13,227.05,216.18,251.69z"/>
</g>
</svg>
