<?xml version="1.0" encoding="utf-8"?>
<!-- Generator: Adobe Illustrator 26.0.1, SVG Export Plug-In . SVG Version: 6.00 Build 0)  -->
<svg version="1.1" id="Layer_1" xmlns="http://www.w3.org/2000/svg" xmlns:xlink="http://www.w3.org/1999/xlink" x="0px" y="0px"
	 viewBox="0 0 500 500" style="enable-background:new 0 0 500 500;" xml:space="preserve">
<style type="text/css">
	.st0{fill:#CCCCCC;}
	.st1{fill:#999999;}
	.st2{fill:#F2F2F2;}
	.st3{fill:#00A7C4;}
	.st4{fill:#FFFFFF;}
	.st5{fill:#00A7C4;stroke:#F2F2F2;stroke-width:2;stroke-miterlimit:10;}
	.st6{fill:none;stroke:#F2F2F2;stroke-width:9.594;stroke-miterlimit:10;}
	.st7{fill:none;stroke:#00A99D;stroke-width:5;stroke-miterlimit:10;}
	.st8{fill:#00A99D;}
	.st9{fill:none;stroke:#00A99D;stroke-width:1.1092;stroke-miterlimit:10;}
	.st10{fill:none;stroke:#00A99D;stroke-width:2.64;stroke-miterlimit:10;}
	.st11{fill:#139BF6;}
</style>
<path class="st11" d="M454.01,254.98c-0.33,18.65-3.16,36.96-8.55,54.86c-0.12,0.37-0.29,0.71-0.46,1.08
	c-2.87,7.81-5.44,15.74-8.76,23.38c-7.23,16.74-16.94,32.02-28.49,46.14c-0.42,0.54-0.87,1-1.33,1.45
	c-3.41,3.7-6.81,7.43-10.26,11.09c-13.83,14.87-29.82,26.99-47.51,36.88c-19.93,11.17-41.15,18.89-63.66,22.96
	c-0.54,0.12-1.16,0.04-1.25,0.04c0.33-1,0.91-1.83,0.91-2.7c0.04-22.09,0.04-44.23,0.04-66.36c0-0.79,0.04-1.58,0.04-2.37
	c0-3.03-0.04-6.1-0.04-9.14v-58.84c0-0.71,0.04-1.45,0.04-2.16v-3.11h44.85c3.07-19.02,6.1-37.91,9.18-57.1h-51.49
	c-0.75,0-1.45-0.04-2.2-0.04l-0.33-0.33v-7.97c0.12-12.5-0.04-24.96,0.42-37.42c0.25-7.18,3.16-13.45,9.34-17.61
	c4.07-2.74,8.68-4.24,13.58-4.4c11.09-0.42,22.22-0.62,33.59-0.87c0.08-1.16,0.17-2.53,0.25-3.86c-0.04-0.79-0.12-1.62-0.12-2.41
	v-45.43c-3.53-0.5-6.98-1.04-10.46-1.49c-12.83-1.58-25.7-2.95-38.7-2.49c-15.24,0.54-29.65,4.07-42.65,12.37
	c-13,8.26-21.88,19.85-27.2,34.3c-0.33,0.91-0.71,1.83-1.08,2.74c-1.33,5.94-2.95,11.84-3.86,17.86c-0.67,4.36-0.42,8.85-0.5,13.29
	c-0.04,6.48-0.04,13-0.08,19.48v24.25h-50.99v22.8c0.04,10.67,0.04,21.34,0.08,32.02v2.33h50.91v17.07
	c0.04,14.49,0.08,28.99,0.08,43.48c0,2.62-0.04,5.27-0.08,7.93c0.04,0.66,0.08,1.33,0.08,1.99v71.92c0,2.45-0.25,2.7-2.62,2.24
	c-50.5-9.88-91.94-34.84-124.37-74.75c-0.25-0.29-0.42-0.66-0.67-1c-5.11-7.39-10.46-14.66-15.32-22.26
	c-5.61-8.72-9.97-18.15-13.83-27.82c-0.17-0.42-0.25-0.87-0.37-1.33c-4.36-10.46-7.56-21.3-9.76-32.39
	c-1.29-6.27-2.08-12.67-3.07-18.98c-0.33-3.53-0.62-7.06-1-10.59c-0.04-0.62-0.25-1.25-0.37-1.83v-21.55
	c0.25-2.57,0.5-5.15,0.79-7.72c0.25-1.95,0.54-3.9,0.79-5.81c1.08-6.52,1.95-13.12,3.28-19.6c2.12-10.46,5.36-20.64,9.26-30.61
	c0.12-0.29,0.29-0.58,0.46-0.87c5.56-14.2,12.75-27.57,21.51-40.03c4.19-5.94,8.93-11.54,13.41-17.27
	c5.77-6.02,11.25-12.38,17.4-17.98c22.47-20.6,48.29-35.38,77.4-44.39c21.26-6.56,43.06-9.63,65.32-8.93
	c47.42,1.58,89.32,17.73,125.74,48.13c8.02,6.73,15.41,14.04,22.3,21.93c0.33,0.37,0.62,0.83,0.96,1.25
	c8.97,10.09,16.69,21.1,23.17,32.93c3.99,7.31,7.39,14.95,10.96,22.47c0.75,1.5,1.16,3.16,1.74,4.78
	c7.85,19.85,12.17,40.45,13.25,61.75c0.04,0.66,0,1.33,0,1.99C453.85,246.55,454.09,250.75,454.01,254.98z"/>
</svg>
