<?xml version="1.0" encoding="utf-8"?>
<!-- Generator: Adobe Illustrator 26.0.1, SVG Export Plug-In . SVG Version: 6.00 Build 0)  -->
<svg version="1.1" id="Layer_1" xmlns="http://www.w3.org/2000/svg" xmlns:xlink="http://www.w3.org/1999/xlink" x="0px" y="0px"
	 viewBox="0 0 500 500" style="enable-background:new 0 0 500 500;" xml:space="preserve">
<style type="text/css">
	.st0{fill:#CCCCCC;}
	.st1{fill:#999999;}
	.st2{fill:#F2F2F2;}
	.st3{fill:#00A7C4;}
	.st4{fill:#FFFFFF;}
	.st5{fill:#00A7C4;stroke:#F2F2F2;stroke-width:2;stroke-miterlimit:10;}
</style>
<g>
	<g>
		<rect x="52" y="153.24" class="st3" width="255.84" height="159.08"/>
	</g>
	<g>
		<path class="st3" d="M448,312.32l-130.29,0l0-130.29l72.04,0c32.17,0,58.25,26.08,58.25,58.25L448,312.32z"/>
	</g>
	<g>
		<g>
			<circle class="st3" cx="109.91" cy="312.32" r="27.83"/>
		</g>
		<g>
			<path class="st2" d="M109.91,346.76c-18.99,0-34.44-15.45-34.44-34.44c0-18.99,15.45-34.44,34.44-34.44
				c18.99,0,34.44,15.45,34.44,34.44C144.35,331.31,128.9,346.76,109.91,346.76z M109.91,291.09c-11.7,0-21.23,9.52-21.23,21.23
				c0,11.7,9.52,21.23,21.23,21.23c11.71,0,21.23-9.52,21.23-21.23C131.14,300.62,121.61,291.09,109.91,291.09z"/>
		</g>
	</g>
	<g>
		<g>
			<circle class="st3" cx="314.16" cy="312.32" r="27.83"/>
		</g>
		<g>
			<path class="st2" d="M314.16,346.76c-18.99,0-34.44-15.45-34.44-34.44c0-18.99,15.45-34.44,34.44-34.44
				c18.99,0,34.44,15.45,34.44,34.44C348.6,331.31,333.15,346.76,314.16,346.76z M314.16,291.09c-11.7,0-21.23,9.52-21.23,21.23
				c0,11.7,9.52,21.23,21.23,21.23c11.71,0,21.23-9.52,21.23-21.23C335.39,300.62,325.86,291.09,314.16,291.09z"/>
		</g>
	</g>
	<g>
		<path class="st4" d="M424.74,275.52l-68.22,0l0-68.22h27.9c22.27,0,40.32,18.05,40.32,40.32V275.52z"/>
	</g>
	<g>
		<path class="st4" d="M96.92,197.4c0-4.75,0.61-8.7,1.83-11.84c1.22-3.13,3.05-5.43,5.5-6.88c2.44-1.52,5-2.64,7.67-3.37
			c2.68-0.73,5.47-1.09,8.37-1.09l10.11-0.2v8.62h-9.31c-2.18,0.14-4.16,0.44-5.94,0.94c-1.78,0.5-3.37,1.21-4.76,2.13
			c-1.39,0.93-2.42,2.26-3.12,4.01c-0.7,1.75-1.04,3.88-1.04,6.39v8.32h24.17v8.62h-24.17v30.41h-9.31V197.4z"/>
		<path class="st4" d="M150.22,195.91v4.66c0.13-0.06,0.25-0.16,0.35-0.3c0.1-0.13,0.25-0.3,0.44-0.5c0.13-0.19,0.3-0.39,0.5-0.59
			c0.2-0.19,0.4-0.39,0.59-0.59c0.53-0.53,1.11-1.02,1.73-1.48c0.63-0.46,1.37-0.89,2.23-1.29c0.79-0.39,1.68-0.71,2.68-0.94
			c0.99-0.23,2.04-0.35,3.17-0.35l3.17-0.19v8.62h-2.38c-1.85,0.33-3.43,0.83-4.75,1.48c-1.32,0.66-2.44,1.49-3.37,2.48
			c-0.86,0.99-1.57,2.03-2.13,3.12c-0.56,1.09-1.01,2.2-1.34,3.32c-0.26,0.86-0.46,1.68-0.59,2.48c-0.13,0.79-0.2,1.55-0.2,2.28
			c-0.06,0.79-0.1,1.48-0.1,2.08c0,0.59,0,1.15,0,1.68v21.59h-8.62v-47.55H150.22z"/>
		<path class="st4" d="M207.47,208.39c-0.13-0.06-0.26-0.15-0.4-0.25c-0.13-0.1-0.26-0.25-0.4-0.44c-0.13-0.13-0.28-0.3-0.44-0.5
			c-0.16-0.19-0.35-0.39-0.54-0.59c-0.2-0.13-0.41-0.28-0.64-0.44c-0.23-0.16-0.45-0.35-0.64-0.54c-0.26-0.14-0.53-0.28-0.79-0.44
			c-0.26-0.17-0.56-0.32-0.89-0.45c-0.66-0.33-1.44-0.55-2.33-0.69c-0.89-0.13-1.9-0.2-3.02-0.2c-2.58,0-4.84,0.46-6.79,1.39
			c-1.95,0.93-3.58,2.28-4.9,4.06c-1.32,1.79-2.31,3.66-2.97,5.65c-0.66,1.98-0.99,4.02-0.99,6.14c0,0.06,0,0.14,0,0.2v0.1
			c0,1.92,0.35,3.75,1.04,5.49c0.69,1.75,1.7,3.42,3.02,5c1.32,1.59,2.96,2.77,4.9,3.57c1.95,0.79,4.18,1.19,6.69,1.19
			c2.71,0,4.97-0.31,6.78-0.94c1.82-0.63,3.19-1.57,4.11-2.82c0.92-1.32,1.77-2.88,2.52-4.66c0.76-1.79,1.44-3.8,2.03-6.04v-0.1
			l0.1-0.1v-0.1l8.62,0.5c0,0.13,0,0.25,0,0.34c0,0.1,0.03,0.19,0.1,0.25c0,0.13,0,0.23,0,0.3c0,0.06,0,0.16,0,0.3
			c0,0.06,0,0.15,0,0.25c0,0.1,0.03,0.19,0.1,0.25c0,0.13,0,0.23,0,0.3s0,0.13,0,0.19c0,0.54-0.04,1.08-0.1,1.64
			c-0.07,0.56-0.16,1.14-0.3,1.73c-0.07,0.26-0.15,0.56-0.25,0.89s-0.18,0.63-0.25,0.89c-0.13,0.34-0.25,0.64-0.35,0.94
			s-0.22,0.61-0.35,0.94c-0.79,1.65-1.85,3.27-3.17,4.86c-1.32,1.58-2.94,3.07-4.85,4.46c-1.85,1.39-4.01,2.42-6.49,3.12
			c-2.48,0.69-5.24,1.04-8.27,1.04c-3.5,0-6.74-0.54-9.71-1.63c-2.97-1.09-5.65-2.76-8.02-5c-2.44-2.31-4.26-4.9-5.45-7.78
			c-1.19-2.87-1.78-6.06-1.78-9.56c0-3.7,0.5-6.96,1.49-9.81c0.99-2.84,2.48-5.28,4.46-7.33c1.98-2.05,4.06-3.73,6.24-5.06
			c2.18-1.32,4.46-2.28,6.84-2.87c0.26-0.06,0.51-0.12,0.74-0.15c0.23-0.03,0.48-0.08,0.74-0.15c0.26,0,0.51-0.02,0.74-0.05
			c0.23-0.03,0.48-0.08,0.74-0.15c0.53-0.06,1.04-0.12,1.53-0.15c0.5-0.03,0.97-0.05,1.44-0.05c2.71,0,5.23,0.38,7.58,1.14
			s4.51,1.9,6.49,3.42c1.92,1.52,3.65,3.21,5.2,5.05c1.55,1.85,2.92,3.83,4.11,5.95l-32.79,17.73l-3.86-6.93L207.47,208.39z"/>
		<path class="st4" d="M267.79,208.39c-0.13-0.06-0.26-0.15-0.4-0.25c-0.13-0.1-0.26-0.25-0.4-0.44c-0.13-0.13-0.28-0.3-0.44-0.5
			c-0.16-0.19-0.35-0.39-0.54-0.59c-0.2-0.13-0.41-0.28-0.64-0.44c-0.23-0.16-0.45-0.35-0.64-0.54c-0.26-0.14-0.53-0.28-0.79-0.44
			c-0.26-0.17-0.56-0.32-0.89-0.45c-0.66-0.33-1.44-0.55-2.33-0.69c-0.89-0.13-1.9-0.2-3.02-0.2c-2.58,0-4.84,0.46-6.79,1.39
			c-1.95,0.93-3.58,2.28-4.9,4.06c-1.32,1.79-2.31,3.66-2.97,5.65c-0.66,1.98-0.99,4.02-0.99,6.14c0,0.06,0,0.14,0,0.2v0.1
			c0,1.92,0.35,3.75,1.04,5.49c0.69,1.75,1.7,3.42,3.02,5c1.32,1.59,2.96,2.77,4.9,3.57c1.95,0.79,4.18,1.19,6.69,1.19
			c2.71,0,4.97-0.31,6.78-0.94c1.82-0.63,3.19-1.57,4.11-2.82c0.92-1.32,1.77-2.88,2.52-4.66c0.76-1.79,1.44-3.8,2.03-6.04v-0.1
			l0.1-0.1v-0.1l8.62,0.5c0,0.13,0,0.25,0,0.34c0,0.1,0.03,0.19,0.1,0.25c0,0.13,0,0.23,0,0.3c0,0.06,0,0.16,0,0.3
			c0,0.06,0,0.15,0,0.25c0,0.1,0.03,0.19,0.1,0.25c0,0.13,0,0.23,0,0.3s0,0.13,0,0.19c0,0.54-0.04,1.08-0.1,1.64
			c-0.07,0.56-0.16,1.14-0.3,1.73c-0.07,0.26-0.15,0.56-0.25,0.89c-0.1,0.33-0.18,0.63-0.25,0.89c-0.13,0.34-0.25,0.64-0.35,0.94
			c-0.1,0.3-0.22,0.61-0.35,0.94c-0.79,1.65-1.85,3.27-3.17,4.86c-1.32,1.58-2.94,3.07-4.85,4.46c-1.85,1.39-4.01,2.42-6.49,3.12
			c-2.48,0.69-5.24,1.04-8.27,1.04c-3.5,0-6.74-0.54-9.71-1.63c-2.97-1.09-5.65-2.76-8.02-5c-2.44-2.31-4.26-4.9-5.45-7.78
			c-1.19-2.87-1.78-6.06-1.78-9.56c0-3.7,0.5-6.96,1.49-9.81c0.99-2.84,2.48-5.28,4.46-7.33c1.98-2.05,4.06-3.73,6.24-5.06
			c2.18-1.32,4.46-2.28,6.84-2.87c0.26-0.06,0.51-0.12,0.74-0.15c0.23-0.03,0.48-0.08,0.74-0.15c0.26,0,0.51-0.02,0.74-0.05
			c0.23-0.03,0.48-0.08,0.74-0.15c0.53-0.06,1.04-0.12,1.53-0.15c0.5-0.03,0.97-0.05,1.44-0.05c2.71,0,5.23,0.38,7.58,1.14
			s4.51,1.9,6.49,3.42c1.92,1.52,3.65,3.21,5.2,5.05c1.55,1.85,2.92,3.83,4.11,5.95l-32.79,17.73l-3.86-6.93L267.79,208.39z"/>
	</g>
</g>
</svg>
