<?xml version="1.0" encoding="utf-8"?>
<!-- Generator: Adobe Illustrator 26.0.1, SVG Export Plug-In . SVG Version: 6.00 Build 0)  -->
<svg version="1.1" id="Layer_1" xmlns="http://www.w3.org/2000/svg" xmlns:xlink="http://www.w3.org/1999/xlink" x="0px" y="0px"
	 viewBox="0 0 500 500" style="enable-background:new 0 0 500 500;" xml:space="preserve">
<style type="text/css">
	.st0{fill:#CCCCCC;}
	.st1{fill:#999999;}
	.st2{fill:#F2F2F2;}
	.st3{fill:#00A7C4;}
	.st4{fill:#FFFFFF;}
	.st5{fill:#00A7C4;stroke:#F2F2F2;stroke-width:2;stroke-miterlimit:10;}
	.st6{fill:none;stroke:#F2F2F2;stroke-width:9.594;stroke-miterlimit:10;}
	.st7{fill:none;stroke:#00A99D;stroke-width:5;stroke-miterlimit:10;}
	.st8{fill:#00A99D;}
	.st9{fill:none;stroke:#00A99D;stroke-width:1.1092;stroke-miterlimit:10;}
	.st10{fill:none;stroke:#00A99D;stroke-width:2.64;stroke-miterlimit:10;}
	.st11{fill:#139BF6;}
	.st12{fill:url(#SVGID_1_);}
	.st13{fill:#D4101D;}
	.st14{fill:#BA1A25;}
	.st15{fill:#D3101D;}
	.st16{fill:#333333;}
	.st17{fill:#29ABE2;}
	.st18{fill:#39B54A;}
	.st19{fill:#0083FD;}
	.st20{fill:#FAFCFE;}
	.st21{fill:#3399FF;}
	.st22{fill:#0979BD;}
	.st23{fill:#FEFEFE;}
	.st24{fill:#FBFDFD;}
</style>
<g>
	<path class="st21" d="M454.5,230.37c-0.94-6.86-1.77-13.73-2.62-20.59c-0.5-0.55-1-1.1-1.5-1.65c0.25,0.02,0.5,0.02,0.75,0.02
		c0.06-0.64,0.27-1.32,0.14-1.92c-3.62-16.72-8.93-32.85-17.06-47.97c-3.01-5.51-5.85-11.11-9.04-16.51
		c-9.74-16.42-22.48-30.42-36.17-43.54c-5.38-5.16-11.59-9.46-17.42-14.14c-20.17-15.2-42.49-26.01-66.86-32.6
		c-9.56-1.95-19.13-3.87-28.67-5.9c-0.97-0.2-1.8-1.03-2.7-1.57h-46.67c0.19,0.17,0.39,0.34,0.55,0.53
		c0.02,0.02-0.13,0.27-0.23,0.29c-3.06,0.6-6.12,1.19-9.17,1.79c-18.76,2.59-36.69,8.1-53.73,16.18
		C112.6,87.22,76.51,126.11,56.51,179.5c-4.04,10.78-6.13,22.3-9.12,33.48c-0.38,2.33-0.61,4.71-1.17,7
		c-0.56,2.27-1.46,4.46-2.22,6.69v45.06c0.53,1.14,1.39,2.25,1.53,3.44c1.72,15.03,5.28,29.61,10.44,43.82
		c0.18,0.48,0.5,0.91,0.75,1.37c3.91,8.9,7.01,18.3,11.97,26.58c5.14,8.6,4.18,15.84-1.78,22.76c-5.22,6.07-11.11,11.57-16.83,17.2
		c-1.82,1.79-4.04,3.16-6.08,4.73v8.85c2.32,1.35,4.51,3.03,6.97,4c20.19,7.92,40.64,9.07,61.28,1.87c2.25-0.79,3.6-0.26,5.35,1.09
		c5.92,4.59,12.01,8.96,18.03,13.42c7.94,4.68,15.7,9.7,23.86,13.95c12.08,6.29,24.74,11.2,38.12,14.11
		c8.89,1.82,17.8,3.6,26.68,5.49c1.13,0.24,2.12,1.05,3.18,1.59h45.06c0.84-0.51,1.62-1.33,2.52-1.5
		c6.57-1.21,13.24-2.01,19.76-3.44c22.49-4.92,43.48-13.62,63.02-25.8c22.1-13.23,40.67-30.4,56.2-50.85
		c18.05-23.75,30.62-50.12,36.87-79.39c0.12-0.78,0.23-1.57,0.35-2.35c0.17-0.56,0.34-1.11,0.51-1.67c0.89-5.5,1.75-11.01,2.74-16.5
		c0.18-0.99,0.99-1.86,1.5-2.78v-40.23C455.48,231.12,454.56,230.8,454.5,230.37z M419.84,277c-0.1,0.56-0.19,1.1-0.29,1.66
		c-0.68,3.47-1.37,6.94-2.05,10.42c-0.18,0.56-0.35,1.13-0.52,1.69c-0.14,0.77-0.27,1.54-0.41,2.31v0.1
		c-0.53,1.49-1.14,2.95-1.57,4.46c-19.82,70.8-86.46,122.29-159.91,123.2c-10.66,0.13-21.33-1.1-31.99-1.69
		c-5.71-1.32-11.48-2.38-17.1-3.98c-13.9-3.96-27.57-8.64-40-16.15c-7.4-4.46-14.34-9.68-21.49-14.55c-0.27-0.3-0.54-0.58-0.79-0.88
		c-4.3-5.03-8.63-6.03-15.39-3.3c-14.73,5.93-30.21,5.3-45.6,1.97c5.6-6.86,10.74-13.97,13.29-22.62
		c3.76-12.73,3.65-25.49-1.28-37.77c-6.03-15.06-11.15-30.32-13.88-46.35c-2.71-19.67-1.9-39.29,1.07-58.86
		c0.23-1,0.47-1.99,0.71-2.99v-0.23v-0.68v-0.5c0-0.04-0.03-0.09-0.07-0.14c-0.04-0.05-0.09-0.1-0.12-0.16
		c1-4.31,1.99-8.63,2.99-12.94c0.25-0.3,0.49-0.58,0.74-0.88c0.55-1.72,1.12-3.43,1.68-5.15c0.34-0.85,0.67-1.71,1.01-2.56
		c0.48-1.3,0.95-2.61,1.43-3.92c0.34-0.77,0.68-1.54,1.02-2.31c0.33-0.81,0.66-1.61,0.98-2.43v-0.49c0.37-0.72,0.76-1.41,1.09-2.13
		c13.42-29.33,33.46-53.08,59.97-71.42c11.85-8.2,24.75-14.32,38.01-19.79c1.28-0.35,2.57-0.64,3.83-1.06
		c15.94-5.31,32.29-8.53,49.09-8.56c10.51-0.02,21.04,0.96,31.56,1.49c1.17,0.26,2.35,0.55,3.53,0.77
		c53.01,9.97,92.96,38.47,120.21,84.9c8.04,13.7,13.22,28.59,17.54,43.8l-0.1-0.01c0.34,1.32,0.68,2.64,1.02,3.97l-0.01,0.15
		c0.27,1.29,0.56,2.57,0.83,3.85c0.89,14.29,1.79,28.59,2.68,42.87C420.97,265.73,420.41,271.37,419.84,277z"/>
	<path class="st22" d="M452.2,209.44c-0.5-0.55-1-1.1-1.5-1.65c0.25,0.02,0.5,0.02,0.75,0.02
		C451.7,208.35,451.95,208.9,452.2,209.44z"/>
	<path class="st23" d="M418.85,217.22c-0.27-1.29-0.55-2.57-0.83-3.85l0.01-0.15c-0.34-1.33-0.68-2.65-1.02-3.97l0.1,0.01
		c-4.31-15.21-9.49-30.1-17.54-43.8c-27.25-46.43-67.2-74.92-120.21-84.9c-1.18-0.22-2.36-0.51-3.53-0.77
		c-10.52-0.53-21.04-1.5-31.56-1.49c-16.8,0.03-33.16,3.25-49.09,8.56c-1.25,0.42-2.55,0.72-3.83,1.06
		c-13.26,5.47-26.16,11.59-38.01,19.79c-26.51,18.34-46.55,42.09-59.97,71.42c-0.33,0.72-0.72,1.42-1.09,2.13v0.49
		c-0.33,0.82-0.66,1.62-0.98,2.43c-0.34,0.76-0.68,1.54-1.02,2.31c-0.48,1.3-0.95,2.61-1.43,3.92c-0.34,0.85-0.67,1.71-1.01,2.56
		c-0.56,1.72-1.12,3.43-1.68,5.15c-0.25,0.3-0.49,0.58-0.74,0.88c-1,4.31-1.99,8.63-2.99,12.94c0.04,0.05,0.09,0.1,0.12,0.16
		c0.04,0.05,0.07,0.1,0.07,0.14v0.5v0.68v0.23c-0.24,1-0.47,1.99-0.71,2.99c-2.97,19.58-3.78,39.19-1.07,58.86
		c2.73,16.03,7.85,31.28,13.88,46.35c4.93,12.28,5.04,25.04,1.28,37.77c-2.55,8.65-7.69,15.76-13.29,22.62
		c15.38,3.33,30.87,3.97,45.6-1.97c6.76-2.73,11.1-1.73,15.39,3.3c0.26,0.31,0.53,0.59,0.79,0.88c7.15,4.87,14.09,10.09,21.49,14.55
		c12.43,7.51,26.1,12.19,40,16.15c5.62,1.6,11.39,2.67,17.1,3.98c10.66,0.59,21.33,1.82,31.99,1.69
		c73.45-0.92,140.09-52.41,159.91-123.2c0.43-1.51,1.04-2.96,1.57-4.46V293c0.11-0.65,0.21-1.28,0.31-1.93
		c0.2-0.63,0.39-1.25,0.58-1.88c0.49-2.23,0.98-4.44,1.47-6.67c0.29-2.11,0.6-3.77,0.9-5.52c0.56-5.63,1.13-11.27,1.69-16.9
		C420.64,245.81,419.75,231.52,418.85,217.22z M138.68,181.1c4.83-0.02,8.72,3.85,8.63,8.62c-0.08,4.56-3.94,8.39-8.5,8.43
		c-4.77,0.04-8.6-3.86-8.55-8.71C130.33,184.71,133.93,181.13,138.68,181.1z M141.82,300.49c-3.33,1.38-6.65,0.87-8.8-1.83
		c-1.53-1.92-2.61-4.75-2.67-7.19c-0.13-5.32-0.16-10.63-0.24-15.95l0.8-17.82v-9.9c-0.69-7.43-0.69-14.85-0.67-22.27
		c0.02-6.24,3.23-10.08,8.36-10.19c5.27-0.1,8.71,3.9,8.71,10.28c0.02,21.98,0,43.97,0.02,65.94
		C147.34,295.72,145.78,298.86,141.82,300.49z M284.7,291.73c-0.04,5.76-3.74,9.51-8.79,9.41c-5.02-0.1-8.44-3.88-8.48-9.74
		c-0.08-14.07,0.16-28.14-0.11-42.21c-0.25-12.75-13.62-20.62-24.8-14.76c-0.26,0.14-0.51,0.28-0.76,0.43
		c-0.15,0.08-0.31,0.17-0.45,0.26c-0.24,0.15-0.48,0.3-0.72,0.46c-0.14,0.09-0.28,0.19-0.42,0.29c-0.73,0.51-1.4,1.07-2.01,1.66
		c-0.05,0.05-0.1,0.1-0.14,0.15c-0.2,0.2-0.39,0.4-0.58,0.6c-0.34,0.36-0.65,0.74-0.94,1.13c-0.12,0.17-0.24,0.35-0.37,0.52
		c-0.16,0.23-0.31,0.47-0.47,0.72c-0.06,0.08-0.1,0.17-0.15,0.26c-0.08,0.13-0.15,0.27-0.23,0.4c-0.06,0.11-0.13,0.23-0.19,0.35
		c-0.12,0.22-0.23,0.46-0.34,0.69c-0.01,0.02-0.01,0.03-0.02,0.04c-0.11,0.26-0.22,0.52-0.31,0.77c-0.06,0.13-0.1,0.27-0.14,0.39
		c-0.06,0.14-0.1,0.28-0.14,0.42c-0.09,0.26-0.16,0.52-0.23,0.79c-0.07,0.27-0.14,0.55-0.2,0.83c-0.01,0.03-0.02,0.06-0.02,0.1
		c-0.06,0.25-0.1,0.5-0.14,0.76c-0.05,0.28-0.1,0.58-0.13,0.88c-0.04,0.27-0.06,0.53-0.09,0.8c0,0.05-0.01,0.1-0.01,0.14
		c-0.02,0.26-0.04,0.52-0.05,0.79c-0.01,0.18-0.02,0.35-0.02,0.53c-0.01,0.18-0.01,0.35-0.01,0.53c0.02,12.87,0,25.73,0,38.59
		c0,1.21,0.06,2.41-0.04,3.61c-0.39,5.27-3.87,8.79-8.63,8.79c-4.73,0-8.22-3.55-8.61-8.79c-0.08-1.07-0.03-2.14-0.03-3.22
		c0-12.46,0.04-24.92-0.03-37.39c-0.02-2.52-0.46-5.05-0.71-7.57c-0.23-0.49-0.47-0.97-0.72-1.42c-0.25-0.46-0.5-0.9-0.76-1.33
		c-0.26-0.43-0.52-0.84-0.79-1.23c-0.27-0.39-0.55-0.77-0.83-1.13c-0.28-0.37-0.57-0.72-0.87-1.05c-0.16-0.18-0.33-0.36-0.51-0.54
		c-0.11-0.12-0.23-0.23-0.35-0.35c-0.31-0.31-0.63-0.6-0.96-0.87c-0.1-0.1-0.21-0.19-0.32-0.27c-0.02-0.02-0.04-0.04-0.06-0.06
		c-0.11-0.1-0.23-0.18-0.35-0.27c-0.23-0.17-0.45-0.33-0.68-0.48c-0.21-0.14-0.43-0.28-0.65-0.41c-0.18-0.1-0.35-0.2-0.53-0.3
		c-0.18-0.1-0.35-0.19-0.54-0.28c-0.16-0.08-0.33-0.16-0.5-0.23c-0.39-0.18-0.79-0.33-1.2-0.47c-0.39-0.14-0.78-0.25-1.19-0.35
		c-0.33-0.09-0.66-0.16-1.01-0.23c-0.26-0.05-0.52-0.09-0.78-0.12c-0.18-0.03-0.35-0.06-0.54-0.07c-0.23-0.03-0.47-0.06-0.7-0.06
		c-0.23-0.02-0.47-0.03-0.72-0.04c-0.26-0.01-0.51-0.02-0.78-0.02c-0.5,0-1.01,0.02-1.53,0.05c-6.92,0.47-12.95,5.25-14.87,12.13
		c-0.6,2.15-0.7,4.48-0.72,6.74c-0.06,12.85-0.01,25.7-0.05,38.55c0,1.58-0.1,3.23-0.48,4.76c-0.98,3.86-4.38,6.37-8.26,6.31
		c-3.73-0.05-6.94-2.49-8.01-6.14c-0.26-0.89-0.48-1.83-0.47-2.75c0.02-12.31,0.1-24.62,0.15-36.93
		c-0.06-10.31-0.19-20.62-0.15-30.92c0.02-4.11,1.91-7.23,5.99-8.58c4.74-1.55,7.94,0.85,10.66,4.35
		c16.89-9.6,34.47-3.48,42.63,6.45c0.89-0.44,1.94-0.71,2.64-1.35c10.78-9.93,23.2-12.79,36.76-7.3
		c13.71,5.56,20.96,16.43,21.44,31.17C285.06,263.32,284.8,277.53,284.7,291.73z M370.17,270.41c-0.8,14.35-12.6,26.88-27.09,30.06
		c-16.16,3.55-31.37-6.07-36.53-16.81c-1.3-3.18-3.59-6.32-3.73-9.55c-0.48-10.53-1.37-21.26,0.07-31.62
		c2.31-16.53,19.76-29.05,35.21-26.83c16.26,0.31,31.04,13.99,32.06,30.24C370.66,254.05,370.62,262.26,370.17,270.41z"/>
	<path class="st21" d="M147.34,291.57c0,4.15-1.55,7.29-5.52,8.92c-3.33,1.38-6.65,0.87-8.8-1.83c-1.53-1.92-2.61-4.75-2.67-7.19
		c-0.13-5.32-0.16-10.63-0.16-15.95c0-5.94,0.04-11.88,0.05-17.82c0-3.3,0-6.6-0.01-9.9c-0.01-7.43-0.01-14.85,0.02-22.27
		c0.02-6.24,3.23-10.08,8.36-10.19c5.27-0.1,8.71,3.9,8.71,10.28C147.33,247.61,147.31,269.59,147.34,291.57z"/>
	<path class="st21" d="M370.15,245.9c-1.02-16.25-15.8-29.93-32.06-30.24c-15.45-2.22-32.9,10.3-35.21,26.83
		c-1.44,10.36-0.56,21.08-0.07,31.62c0.14,3.24,2.43,6.37,3.73,9.55c5.17,10.74,20.37,20.36,36.53,16.81
		c14.49-3.19,26.3-15.71,27.09-30.06C370.62,262.26,370.66,254.05,370.15,245.9z M352.61,270.62
		c-1.63,11.15-13.66,15.33-22.36,12.75c-6.12-1.82-10.94-9.17-11.32-16.45c-0.1-2-0.14-4-0.21-6c0.06-2.67,0.3-5.36,0.17-8.02
		c-0.47-9.72,3.56-16.5,12.72-20.06c11.83-0.77,19.69,3.48,21.02,13.07C353.75,254.02,353.79,262.54,352.61,270.62z"/>
	<path class="st21" d="M284.7,291.73c-0.04,5.76-3.74,9.51-8.79,9.41c-5.02-0.1-8.44-3.88-8.48-9.74
		c-0.08-14.07,0.16-28.14-0.11-42.21c-0.25-12.75-13.62-20.62-24.8-14.76c-0.26,0.14-0.51,0.28-0.76,0.43
		c-0.15,0.08-0.31,0.17-0.45,0.26c-0.24,0.15-0.48,0.3-0.72,0.46c-0.14,0.09-0.28,0.19-0.42,0.29c-0.73,0.51-1.4,1.07-2.01,1.66
		c-0.05,0.05-0.1,0.1-0.14,0.15c-0.21,0.2-0.39,0.4-0.58,0.6c-0.34,0.36-0.65,0.74-0.94,1.13c-0.13,0.17-0.26,0.35-0.37,0.52
		c-0.17,0.24-0.32,0.48-0.47,0.72c-0.06,0.08-0.1,0.17-0.15,0.26c-0.08,0.13-0.15,0.27-0.23,0.4c-0.06,0.11-0.13,0.23-0.19,0.35
		c-0.12,0.22-0.23,0.46-0.34,0.69c-0.01,0.02-0.01,0.03-0.02,0.04c-0.11,0.26-0.22,0.52-0.31,0.77c-0.06,0.13-0.1,0.27-0.14,0.39
		c-0.06,0.14-0.1,0.28-0.14,0.42c-0.09,0.26-0.16,0.52-0.23,0.79c-0.07,0.27-0.14,0.55-0.2,0.83c-0.01,0.03-0.02,0.06-0.02,0.1
		c-0.06,0.25-0.1,0.5-0.14,0.76c-0.05,0.28-0.1,0.58-0.13,0.88c-0.04,0.27-0.06,0.53-0.09,0.8c0,0.05-0.01,0.1-0.01,0.14
		c-0.02,0.26-0.04,0.52-0.05,0.79c-0.01,0.18-0.02,0.35-0.02,0.53c-0.01,0.18-0.01,0.35-0.01,0.53c0.02,12.87,0,25.73,0,38.59
		c0,1.21,0.06,2.41-0.04,3.61c-0.39,5.27-3.87,8.79-8.63,8.79c-4.73,0-8.22-3.55-8.61-8.79c-0.08-1.07-0.03-2.14-0.03-3.22
		c0-12.46,0.04-24.92-0.03-37.39c-0.02-2.52-0.46-5.05-0.71-7.57c-0.23-0.49-0.47-0.97-0.72-1.42c-0.25-0.46-0.5-0.9-0.76-1.33
		c-0.26-0.43-0.52-0.84-0.79-1.23c-0.27-0.39-0.55-0.77-0.83-1.13c-0.28-0.37-0.57-0.72-0.87-1.05c-0.16-0.18-0.33-0.36-0.51-0.54
		c-0.1-0.12-0.23-0.24-0.35-0.35c-0.31-0.31-0.63-0.6-0.96-0.87c-0.1-0.1-0.21-0.19-0.32-0.27c-0.02-0.02-0.04-0.04-0.06-0.06
		c-0.11-0.1-0.23-0.18-0.35-0.27c-0.23-0.17-0.45-0.33-0.68-0.48c-0.21-0.14-0.43-0.28-0.65-0.41c-0.18-0.1-0.35-0.2-0.53-0.3
		c-0.18-0.1-0.35-0.19-0.54-0.28c-0.16-0.08-0.33-0.16-0.5-0.23c-0.39-0.18-0.79-0.33-1.2-0.47c-0.39-0.14-0.78-0.25-1.19-0.35
		c-0.33-0.09-0.66-0.16-1.01-0.23c-0.26-0.05-0.52-0.09-0.78-0.12c-0.18-0.03-0.35-0.06-0.54-0.07c-0.23-0.03-0.47-0.06-0.7-0.06
		c-0.23-0.02-0.47-0.03-0.72-0.04c-0.26-0.01-0.51-0.02-0.78-0.02c-0.5,0-1.01,0.02-1.53,0.05c-6.92,0.47-12.95,5.25-14.87,12.13
		c-0.6,2.15-0.7,4.48-0.72,6.74c-0.06,12.85-0.01,25.7-0.05,38.55c0,1.58-0.1,3.23-0.48,4.76c-0.98,3.86-4.38,6.37-8.26,6.31
		c-3.73-0.05-6.94-2.49-8.01-6.14c-0.26-0.89-0.48-1.83-0.47-2.75c0.02-12.31,0.1-24.62,0.15-36.93
		c-0.06-10.31-0.19-20.62-0.15-30.92c0.02-4.11,1.91-7.23,5.99-8.58c4.74-1.55,7.94,0.85,10.66,4.35
		c16.89-9.6,34.47-3.48,42.63,6.45c0.89-0.44,1.94-0.71,2.64-1.35c10.78-9.93,23.2-12.79,36.76-7.3
		c13.71,5.56,20.96,16.43,21.44,31.17C285.06,263.32,284.8,277.53,284.7,291.73z"/>
	<path class="st21" d="M147.31,189.72c-0.08,4.56-3.94,8.39-8.5,8.43c-4.77,0.04-8.6-3.86-8.55-8.71c0.06-4.74,3.66-8.31,8.41-8.34
		C143.51,181.08,147.4,184.96,147.31,189.72z"/>
	<path class="st24" d="M352.61,270.62c-1.63,11.15-13.66,15.33-22.36,12.75c-6.12-1.82-10.94-9.17-11.32-16.45c-0.1-2-0.14-4-0.21-6
		c0.06-2.67,0.3-5.36,0.17-8.02c-0.47-9.72,3.56-16.5,12.72-20.06c11.83-0.77,19.69,3.48,21.02,13.07
		C353.75,254.02,353.79,262.54,352.61,270.62z"/>
</g>
</svg>
