<?xml version="1.0" encoding="utf-8"?>
<!-- Generator: Adobe Illustrator 26.0.1, SVG Export Plug-In . SVG Version: 6.00 Build 0)  -->
<svg version="1.1" id="Layer_1" xmlns="http://www.w3.org/2000/svg" xmlns:xlink="http://www.w3.org/1999/xlink" x="0px" y="0px"
	 viewBox="0 0 500 500" style="enable-background:new 0 0 500 500;" xml:space="preserve">
<style type="text/css">
	.st0{fill:#CCCCCC;}
	.st1{fill:#999999;}
	.st2{fill:#F2F2F2;}
	.st3{fill:#00A7C4;}
	.st4{fill:#FFFFFF;}
	.st5{fill:#00A7C4;stroke:#F2F2F2;stroke-width:2;stroke-miterlimit:10;}
	.st6{fill:none;stroke:#F2F2F2;stroke-width:9.594;stroke-miterlimit:10;}
	.st7{fill:none;stroke:#00A99D;stroke-width:5;stroke-miterlimit:10;}
	.st8{fill:#00A99D;}
	.st9{fill:none;stroke:#00A99D;stroke-width:6.9158;stroke-miterlimit:10;}
	.st10{fill:none;stroke:#00A99D;stroke-width:16.4608;stroke-miterlimit:10;}
</style>
<g>
	<g>
		<path class="st8" d="M424.51,282.56L424.51,282.56c-13.64,0-24.69-11.05-24.69-24.69v-24.06c0-82.75-66.34-151.14-149.09-151.61
			c-83.09-0.48-150.84,66.98-150.84,149.96v25.71c0,13.64-11.05,24.69-24.69,24.69h0v-48.48c0-96.38,77.26-176.02,173.64-176.58
			c96.77-0.56,175.68,78.01,175.68,174.65V282.56z"/>
	</g>
	<path class="st9" d="M412.19,224.1l0,50.4c0,85.31-65.82,155.25-149.45,161.81"/>
	<path class="st10" d="M76.53,274.23c-0.2,0-0.39,0-0.59-0.01c-17.56-0.31-31.71-14.65-31.71-32.29v0
		c0-17.84,14.46-32.29,32.29-32.29h10.03"/>
	<path class="st10" d="M413.44,210.27h10.03c17.84,0,32.29,14.46,32.29,32.29v0c0,17.84-14.46,32.29-32.29,32.29h-10.03"/>
	<g>
		<path class="st8" d="M173.95,279.33c4.67-6.63,62.26-88.16,64.75-91.71c0,0,10.29,11.05,10.29,11.05l37.2,39.95l-18.53,0.53
			l55.1-47.07l-36.1,62.84c0,0-7.26,12.64-7.26,12.64l-11.27-12.11l-37.2-39.95l18.15-0.09
			C249.07,215.41,173.95,279.33,173.95,279.33L173.95,279.33z"/>
	</g>
	<path class="st8" d="M292.73,442.5H256.4c-5.25,0-9.5-4.25-9.5-9.5v-8.66c0-5.25,4.25-9.5,9.5-9.5h36.33c5.25,0,9.5,4.25,9.5,9.5
		V433C302.23,438.24,297.98,442.5,292.73,442.5z"/>
</g>
</svg>
