<?xml version="1.0" encoding="utf-8"?>
<!-- Generator: Adobe Illustrator 26.0.1, SVG Export Plug-In . SVG Version: 6.00 Build 0)  -->
<svg version="1.1" id="Layer_1" xmlns="http://www.w3.org/2000/svg" xmlns:xlink="http://www.w3.org/1999/xlink" x="0px" y="0px"
	 viewBox="0 0 500 500" style="enable-background:new 0 0 500 500;" xml:space="preserve">
<style type="text/css">
	.st0{fill:#FFFFFF;}
</style>
<g>
	<g>
		<rect x="255.63" y="206.86" class="st0" width="118.08" height="9.52"/>
		<polygon class="st0" points="306.13,313.86 306.13,226.35 275.2,226.35 275.2,235.87 296.61,235.87 296.61,313.86 		"/>
		<polygon class="st0" points="332.75,298.79 332.75,235.85 354.1,235.85 354.1,226.33 323.23,226.33 323.23,298.79 		"/>
		<polygon class="st0" points="145.39,211.62 145.39,323.85 190.5,287.27 226.99,317.53 233.06,310.2 190.57,274.96 154.91,303.88 
			154.91,211.62 		"/>
		<polygon class="st0" points="226.99,210.35 181.53,248.06 181.53,185.31 172.01,185.31 172.01,268.32 233.06,217.68 		"/>
		<polygon class="st0" points="226.96,244.72 203.48,264.19 227.01,283.2 232.99,275.8 218.51,264.1 233.04,252.04 		"/>
		<path class="st0" d="M409.96,355.46c6.98-10.19,12.97-21.09,17.83-32.58c3.18-7.48,5.88-15.19,8.06-23.12
			c1.03-3.74-1.86-7.41-5.78-7.41c-2.68,0-5.04,1.76-5.75,4.31c-2.04,7.44-4.58,14.67-7.57,21.69v0.01
			c-4.56,10.76-10.18,20.98-16.72,30.53c-2.2,3.23-4.52,6.37-6.94,9.43l14.73,0.17C408.56,357.49,409.26,356.49,409.96,355.46z"/>
		<path class="st0" d="M470,292.35L470,292.35c-2.79,0-5.23,1.9-5.83,4.59c-2.79,12.47-6.69,24.54-11.59,36.09
			c-3.79,8.92-8.17,17.55-13.09,25.83l13.67,0.17c3.85-6.94,7.35-14.11,10.48-21.48c5.15-12.18,9.27-24.89,12.22-38.04
			C476.68,295.84,473.82,292.35,470,292.35z"/>
		<path class="st0" d="M405.01,402.67c-10.09,9.91-21.17,18.83-33.08,26.62c-11.8,7.73-24.41,14.35-37.67,19.7
			c-13.02,5.27-26.68,9.31-40.82,12c-13.26,2.52-26.95,3.83-40.96,3.83h-1.39c-14.46-0.09-28.59-1.6-42.25-4.36
			c-14.04-2.85-27.59-7.03-40.5-12.42c-8.85-3.7-17.39-7.95-25.59-12.74l-0.26,13.46c6.89,3.75,13.98,7.15,21.27,10.19
			c13.63,5.7,27.93,10.11,42.75,13.12c14.42,2.91,29.32,4.48,44.58,4.56c0.47,0.01,0.92,0.01,1.39,0.01c14.8,0,29.27-1.39,43.3-4.05
			c14.91-2.85,29.32-7.12,43.06-12.67c13.98-5.66,27.28-12.65,39.72-20.82c12.56-8.2,24.24-17.62,34.89-28.07
			c5.49-5.37,10.7-11,15.62-16.9l-15.64-0.19C410.71,396.93,407.9,399.85,405.01,402.67z"/>
		<path class="st0" d="M71.85,368.94c-7.78-11.55-14.46-23.88-19.89-36.85c-5.32-12.75-9.45-26.12-12.22-39.98
			c-2.69-13.45-4.1-27.34-4.1-41.56v-0.07c0-14.18,1.4-28.06,4.08-41.49c2.76-13.85,6.88-27.23,12.21-40
			c3.75-9.01,8.12-17.71,13.03-26.05l-13.6-0.22c-3.87,7.03-7.38,14.29-10.49,21.75c-5.63,13.47-9.97,27.59-12.89,42.22
			c-2.82,14.17-4.3,28.82-4.3,43.79v0.07c0,15,1.49,29.67,4.33,43.86c2.93,14.61,7.27,28.72,12.9,42.19
			c5.73,13.7,12.78,26.72,20.99,38.91c8.27,12.29,17.73,23.73,28.21,34.17c5.42,5.39,11.1,10.51,17.03,15.34l0.23-15.41
			c-3.01-2.68-5.94-5.44-8.8-8.29C88.64,391.43,79.68,380.58,71.85,368.94z"/>
		<path class="st0" d="M98.5,99.71c9.94-9.92,20.84-18.88,32.57-26.74c11.65-7.81,24.11-14.54,37.22-20.02
			c12.91-5.4,26.47-9.6,40.53-12.45c0,0,0,0,0.01,0c13.67-2.77,27.79-4.27,42.26-4.36h1.39c14,0,27.71,1.32,40.98,3.84
			c14.15,2.68,27.81,6.74,40.85,12c9.06,3.66,17.81,7.92,26.2,12.71l0.18-13.43c-7.06-3.77-14.34-7.17-21.81-10.2
			c-13.75-5.56-28.16-9.83-43.08-12.67c-14.03-2.67-28.51-4.07-43.31-4.07c-0.47,0-0.92,0-1.39,0.01
			c-15.26,0.08-30.18,1.65-44.6,4.57c-14.82,3-29.13,7.42-42.76,13.12c-13.85,5.78-27,12.87-39.31,21.11
			c-12.38,8.3-23.89,17.75-34.38,28.21c-5.38,5.37-10.49,10.98-15.29,16.84l15.45,0.27C92.88,105.48,95.66,102.56,98.5,99.71z"/>
		<path class="st0" d="M432.32,130.85c7.94,11.64,14.77,24.09,20.3,37.19c4.13,9.75,9.17,27.9,11.39,36.21
			c0.69,2.57,3.03,4.35,5.72,4.35c3.88,0,6.71-3.62,5.73-7.32c-2.68-10.12-7.73-28.19-11.79-37.77
			c-5.84-13.82-13.03-26.95-21.42-39.22c-8.43-12.35-18.06-23.84-28.72-34.29c-5.5-5.39-11.28-10.51-17.3-15.33L396.05,90
			c3.1,2.69,6.1,5.48,9.03,8.36C415.19,108.26,424.32,119.14,432.32,130.85z"/>
		<path class="st0" d="M432.81,370.56l-0.81-0.01l-33.22-0.39l-2.91-0.04c-2.1-3.42-5.9-5.69-10.22-5.69
			c-6.6,0-11.96,5.3-11.96,11.82c0,0.95,0.11,1.86,0.32,2.73c-0.96,0.89-1.93,1.76-2.91,2.62c-0.01,0.02-0.04,0.04-0.06,0.06
			c-4.65,4.11-9.53,7.99-14.6,11.6c-1.98,1.43-4.01,2.81-6.06,4.15c-9.7,6.34-20.07,11.76-30.97,16.16
			c-6.51,2.61-13.19,4.86-20.05,6.7l7.95,10.04c5.68-1.68,11.24-3.63,16.68-5.82c11.62-4.69,22.68-10.48,33.03-17.26
			c6.46-4.21,12.63-8.81,18.49-13.75c2.28-1.91,4.51-3.88,6.7-5.91c1.09,0.32,2.25,0.5,3.44,0.5c4.51,0,8.44-2.47,10.48-6.12
			l27.23,0.32l7.45,0.08l7.37,0.08c0.01-0.01,0.02-0.04,0.04-0.05c1.36-1.86,2.69-3.74,3.98-5.64h0.01v-0.01
			c1.35-1.97,2.67-3.97,3.95-5.98c0.01-0.01,0.02-0.04,0.04-0.05l-7.08-0.08L432.81,370.56z M385.65,382.17
			c-3.3,0-5.98-2.65-5.98-5.91c0-3.26,2.68-5.91,5.98-5.91s5.98,2.65,5.98,5.91C391.63,379.52,388.95,382.17,385.65,382.17z"/>
		<path class="st0" d="M251.1,426.48c-11.87-0.08-23.47-1.32-34.68-3.62c-11.53-2.35-22.64-5.8-33.23-10.25
			c-10.75-4.5-20.97-10.02-30.53-16.44c-3.07-2.08-6.09-4.23-9.03-6.49l-0.29,14.48c0.88,0.61,1.78,1.23,2.68,1.82
			c10.2,6.86,21.11,12.74,32.58,17.55c11.31,4.74,23.17,8.42,35.48,10.92c11.97,2.43,24.35,3.76,37.01,3.84
			c0.47,0.01,0.92,0.01,1.39,0.01c5.08,0,10.12-0.2,15.09-0.59l-8.99-11.35c-2.02,0.08-4.05,0.12-6.1,0.12
			C252.02,426.49,251.56,426.49,251.1,426.48z"/>
		<path class="st0" d="M125.33,370.66c-0.89,0-1.73,0.09-2.56,0.27c-0.96-1-1.9-2.02-2.82-3.05l-0.02-0.01
			c-1.35-1.48-2.65-2.98-3.96-4.5v-0.01c-4.25-5.01-8.22-10.25-11.89-15.71c-6.37-9.48-11.84-19.6-16.29-30.25
			c-2.59-6.21-4.83-12.6-6.7-19.15l-10.1,7.91c1.69,5.37,3.61,10.63,5.75,15.77c4.75,11.36,10.58,22.16,17.4,32.28
			c4.22,6.29,8.8,12.28,13.78,18.01v0.02c1.95,2.26,3.95,4.47,6.03,6.63c-0.37,1.13-0.57,2.35-0.57,3.61c0,4.46,2.5,8.33,6.18,10.34
			l-0.39,26.58l-0.12,7.43l-0.11,7.17c0.01,0.01,0.01,0.01,0.02,0.01c1.82,1.31,3.65,2.58,5.51,3.82c0,0.01,0.01,0.01,0.01,0.01
			c2.03,1.37,4.09,2.69,6.18,4l0.13-6.88l0.12-6.64l0.01-0.44l0.31-16.08l0.01-0.87l0.23-15.74l0.04-2.61
			c3.47-2.07,5.78-5.82,5.78-10.11C137.29,375.95,131.93,370.66,125.33,370.66z M125.33,388.39c-3.3,0-5.98-2.65-5.98-5.91
			c0-3.27,2.68-5.91,5.98-5.91c3.3,0,5.98,2.64,5.98,5.91C131.31,385.74,128.63,388.39,125.33,388.39z"/>
		<path class="st0" d="M77.77,216.47c2.26-11.37,5.63-22.34,9.98-32.81c4.45-10.65,9.91-20.78,16.27-30.26
			c2.24-3.32,4.57-6.56,7.02-9.72l-14.62-0.24c-0.79,1.12-1.57,2.25-2.33,3.39c-6.8,10.12-12.64,20.93-17.37,32.3
			c-4.66,11.18-8.26,22.9-10.68,35.02c-2.33,11.75-3.56,23.89-3.56,36.31v0.07c0,5.57,0.25,11.08,0.73,16.52l11.4-8.94
			c-0.11-2.52-0.17-5.05-0.17-7.59v-0.07C74.43,238.85,75.58,227.47,77.77,216.47z"/>
		<path class="st0" d="M71.28,131.77l0.72,0.01l32.86,0.57l2.42,0.04c2.07,3.49,5.91,5.83,10.3,5.83c6.6,0,11.96-5.3,11.96-11.82
			c0-0.96-0.12-1.89-0.35-2.78c7.25-6.89,15.08-13.18,23.43-18.79c9.55-6.42,19.78-11.95,30.53-16.47
			c6.33-2.65,12.84-4.95,19.52-6.87c0.01,0,0.04-0.01,0.05-0.01l-0.41-0.51l-7.65-9.42c-5.48,1.73-10.82,3.7-16.07,5.9
			c-11.48,4.8-22.4,10.7-32.6,17.56c-7.01,4.69-13.68,9.85-19.97,15.4c-1.71,1.51-3.4,3.06-5.06,4.65c-1.06-0.32-2.2-0.48-3.37-0.48
			c-4.46,0-8.35,2.42-10.4,6l-26.7-0.46l-7.49-0.13l-7.2-0.12c-1.34,1.87-2.65,3.76-3.93,5.66c0,0-0.01,0-0.01,0.01
			c-1.21,1.8-2.39,3.62-3.55,5.45c-0.12,0.18-0.23,0.35-0.35,0.54l6.91,0.12L71.28,131.77z M117.57,120.49
			c3.3,0,5.98,2.65,5.98,5.91c0,3.26-2.68,5.91-5.98,5.91c-3.3,0-5.98-2.65-5.98-5.91C111.59,123.13,114.27,120.49,117.57,120.49z"
			/>
		<path class="st0" d="M252.48,74.48c11.42,0,22.59,1.06,33.41,3.11h0.01c11.62,2.19,22.84,5.5,33.55,9.82
			c10.91,4.39,21.27,9.81,30.98,16.17c3.24,2.1,6.4,4.33,9.48,6.64l0.19-14.43c-0.99-0.7-2.01-1.37-3.03-2.03
			c-10.36-6.78-21.42-12.58-33.05-17.27c-11.43-4.61-23.4-8.16-35.81-10.48c-11.58-2.2-23.52-3.35-35.74-3.35
			c-0.47,0-0.92,0-1.39,0.01c-5.75,0.04-11.44,0.33-17.06,0.86l9.09,11.18c2.64-0.13,5.3-0.21,7.98-0.22
			C251.56,74.48,252.02,74.48,252.48,74.48z"/>
		<path class="st0" d="M335.49,375.38c7.51-4.89,14.55-10.43,21.05-16.52c0.33-0.31,0.66-0.63,0.99-0.93
			c0.37-0.35,0.74-0.72,1.1-1.08c7.09-6.91,13.49-14.52,19.08-22.68c5.58-8.12,10.37-16.81,14.25-25.94
			c1.11-2.62,2.15-5.28,3.12-7.97c1.38-3.85-1.51-7.89-5.64-7.89c-2.53,0-4.78,1.57-5.62,3.92c-0.9,2.5-1.87,4.98-2.91,7.41
			c-3.58,8.43-7.99,16.43-13.13,23.91c-5.17,7.53-11.07,14.53-17.6,20.89c-6.52,6.35-13.66,12.07-21.33,17.07
			c-7.61,4.94-15.74,9.18-24.27,12.59c-8.38,3.37-17.17,5.93-26.26,7.62c-1.84,0.34-3.69,0.65-5.56,0.91l7.7,9.72v0.01l0.68,0.86
			c9.7-1.84,19.07-4.61,28.02-8.2C318.43,385.37,327.24,380.76,335.49,375.38z"/>
		<path class="st0" d="M281.52,436.12c2.25-0.34,4.47-0.72,6.68-1.16c2.19-0.4,4.36-0.85,6.52-1.35l-8.2-10.35l-0.91-1.15
			l-18.13-22.88l-0.65-0.82c0.48-1.29,0.74-2.67,0.74-4.11c0-0.33-0.01-0.67-0.05-0.99c-0.5-6.06-5.64-10.83-11.91-10.83
			c-4.25,0-7.96,2.19-10.09,5.48c-0.77-0.04-1.52-0.08-2.27-0.13h-0.02c-5.73-0.37-11.36-1.09-16.87-2.13
			c-0.8-0.14-1.59-0.3-2.38-0.46c-9-1.86-17.69-4.57-25.95-8.07c-8.39-3.52-16.37-7.85-23.83-12.88
			c-7.5-5.05-14.47-10.8-20.81-17.17c-6.35-6.35-12.08-13.3-17.08-20.77c-4.97-7.4-9.23-15.31-12.68-23.62h-0.01
			c-3.41-8.17-6.04-16.73-7.8-25.59c-0.36-1.77-0.68-3.56-0.97-5.35l-5.43,4.26l-4.02,3.14l-1.18,0.93
			c1.91,9.4,4.72,18.47,8.35,27.14c3.75,9.03,8.39,17.61,13.79,25.66c5.44,8.11,11.67,15.66,18.56,22.56
			c6.91,6.9,14.49,13.16,22.64,18.63c8.11,5.46,16.76,10.17,25.89,14c8.99,3.78,18.43,6.73,28.2,8.73
			c5.05,1.04,10.18,1.82,15.39,2.35c2.64,0.26,5.31,0.46,7.99,0.58c2,3.77,5.99,6.35,10.59,6.35c0.68,0,1.35-0.06,2-0.17
			l15.34,19.36L281.52,436.12z M255.62,400.21c-3.3,0-5.98-2.65-5.98-5.91c0-0.08,0-0.18,0.01-0.26c0.13-3.16,2.75-5.65,5.97-5.65
			c3.12,0,5.69,2.36,5.94,5.4c0.02,0.17,0.04,0.33,0.04,0.51C261.6,397.56,258.92,400.21,255.62,400.21z"/>
		<path class="st0" d="M220.19,65.37c-2.06,0.34-4.1,0.72-6.13,1.13c-2.33,0.48-4.64,0.99-6.94,1.55l7.9,9.74h0.01l0.41,0.51
			l0.97,1.19l0.35,0.43l17.54,21.6h0.01l0.42,0.51l0.72,0.89c-0.43,1.23-0.67,2.54-0.67,3.91c0,0.38,0.02,0.76,0.05,1.12
			c0.59,6,5.69,10.7,11.91,10.7c4.35,0,8.17-2.31,10.26-5.74c7.26,0.21,14.39,1,21.33,2.29c9.1,1.7,17.89,4.28,26.28,7.64
			c8.55,3.43,16.68,7.66,24.29,12.61c7.68,5.01,14.83,10.74,21.34,17.1c6.53,6.37,12.42,13.37,17.58,20.9
			c5.14,7.48,9.55,15.5,13.13,23.92c1.03,2.4,1.99,4.83,2.86,7.3c0.85,2.35,3.1,3.92,5.63,3.92c0.66,0,1.28-0.11,1.87-0.3
			c3.07-0.99,4.93-4.36,3.77-7.6c-0.94-2.65-1.97-5.27-3.07-7.85c-3.87-9.16-8.66-17.85-14.23-25.98
			c-5.6-8.18-11.99-15.78-19.08-22.68c-7.07-6.91-14.83-13.13-23.15-18.57c-8.25-5.39-17.08-10-26.36-13.7
			c-9.1-3.68-18.64-6.48-28.52-8.31c-5.18-0.98-10.44-1.68-15.78-2.12c-2.55-0.2-5.12-0.34-7.7-0.41
			c-2.03-3.62-5.94-6.08-10.44-6.08c-0.79,0-1.55,0.07-2.3,0.21l-15.59-19.2L220.19,65.37z M246.74,100.91
			c3.3,0,5.98,2.65,5.98,5.91v0.07c-0.04,3.23-2.7,5.84-5.98,5.84c-3.12,0-5.69-2.36-5.94-5.39c-0.02-0.17-0.04-0.34-0.04-0.52
			C240.76,103.56,243.44,100.91,246.74,100.91z"/>
		<path class="st0" d="M378.39,129.34c0.97,0,1.91-0.12,2.81-0.33c0.81,0.83,1.6,1.68,2.39,2.53c0.02,0.01,0.04,0.02,0.04,0.05
			c0.06,0.04,0.1,0.08,0.13,0.13c5.93,6.39,11.38,13.21,16.31,20.42c6.54,9.56,12.16,19.79,16.71,30.55
			c2.98,6.97,5.49,14.18,7.53,21.58c0.71,2.55,3.06,4.31,5.74,4.31c3.92,0,6.82-3.68,5.79-7.41c-2.18-7.88-4.85-15.57-8.01-23
			c-4.85-11.49-10.83-22.4-17.82-32.6c-4.41-6.47-9.22-12.65-14.41-18.5c-1.85-2.12-3.77-4.18-5.74-6.22
			c0.32-1.06,0.49-2.19,0.49-3.35c0-4.55-2.61-8.5-6.42-10.47l0.32-26.68l0.08-7.32l0.08-7.25c-1.9-1.34-3.85-2.65-5.8-3.92
			l-0.01-0.01c-2-1.31-4.01-2.59-6.05-3.83l-0.08,6.95l-0.07,6.09l-0.01,0.9l-0.38,32.6c-0.02-0.01-0.04-0.04-0.06-0.05l-0.04,3.06
			c-3.3,2.1-5.48,5.77-5.48,9.93C366.44,124.04,371.79,129.34,378.39,129.34z M378.39,111.61c3.3,0,5.98,2.65,5.98,5.91
			c0,3.26-2.68,5.91-5.98,5.91c-3.3,0-5.98-2.65-5.98-5.91C372.42,114.26,375.09,111.61,378.39,111.61z"/>
		<path class="st0" d="M67.56,293.77c0,0.01,0,0.02,0.01,0.02l10.42-8.17l1.78-1.39l22.36-17.53l0.72-0.56
			c1.28,0.47,2.67,0.72,4.11,0.72c0.38,0,0.75-0.01,1.12-0.05c6.07-0.57,10.83-5.63,10.83-11.77c0-4.21-2.24-7.91-5.6-10
			c0.27-7.19,1.12-14.24,2.49-21.1c1.75-8.88,4.38-17.45,7.78-25.61c3.44-8.32,7.7-16.23,12.68-23.64
			c4.99-7.47,10.71-14.44,17.05-20.79c6.36-6.38,13.33-12.14,20.83-17.2c7.46-5.04,15.44-9.37,23.83-12.91
			c8.27-3.5,16.97-6.22,25.97-8.07c1.87-0.39,3.75-0.74,5.66-1.04c0.02,0,0.04-0.01,0.06-0.01l-0.42-0.51l-3.87-4.78l-3.58-4.4
			l-0.35-0.43l-0.29-0.35c-0.01,0-0.04,0.01-0.05,0.01c-9.6,2.01-18.88,4.93-27.72,8.64c-9.12,3.84-17.79,8.55-25.9,14.02
			c-8.14,5.48-15.74,11.75-22.64,18.66c-6.9,6.9-13.12,14.47-18.55,22.58c-5.41,8.05-10.03,16.64-13.79,25.68
			c-3.7,8.88-6.55,18.19-8.47,27.82c-0.98,4.95-1.71,9.99-2.19,15.11c-0.24,2.6-0.42,5.22-0.51,7.87
			c-3.78,1.97-6.36,5.92-6.36,10.44c0,0.7,0.06,1.37,0.18,2.03l-19.4,15.2l-10.85,8.5v0.01c0.33,2.06,0.71,4.1,1.12,6.13
			C66.52,289.23,67.02,291.51,67.56,293.77z M106.96,249.14c0.06,0,0.13,0,0.19,0.01c3.22,0.09,5.79,2.69,5.79,5.9
			c0,3.07-2.38,5.6-5.42,5.87c-0.18,0.02-0.37,0.04-0.56,0.04c-3.3,0-5.98-2.65-5.98-5.91S103.66,249.14,106.96,249.14z"/>
	</g>
</g>
</svg>
