<?xml version="1.0" encoding="utf-8"?>
<!-- Generator: Adobe Illustrator 26.0.1, SVG Export Plug-In . SVG Version: 6.00 Build 0)  -->
<svg version="1.1" id="Layer_1" xmlns="http://www.w3.org/2000/svg" xmlns:xlink="http://www.w3.org/1999/xlink" x="0px" y="0px"
	 viewBox="0 0 500 500" style="enable-background:new 0 0 500 500;" xml:space="preserve">
<style type="text/css">
	.st0{fill:#CCCCCC;}
	.st1{fill:#999999;}
	.st2{fill:#F2F2F2;}
	.st3{fill:#00A7C4;}
	.st4{fill:#FFFFFF;}
	.st5{fill:#00A7C4;stroke:#F2F2F2;stroke-width:2;stroke-miterlimit:10;}
	.st6{fill:none;stroke:#F2F2F2;stroke-width:9.594;stroke-miterlimit:10;}
	.st7{fill:none;stroke:#00A99D;stroke-width:5;stroke-miterlimit:10;}
	.st8{fill:#00A99D;}
	.st9{fill:none;stroke:#00A99D;stroke-width:1.1092;stroke-miterlimit:10;}
	.st10{fill:none;stroke:#00A99D;stroke-width:2.64;stroke-miterlimit:10;}
	.st11{fill:#139BF6;}
	.st12{fill:url(#SVGID_1_);}
	.st13{fill:#D4101D;}
	.st14{fill:#BA1A25;}
	.st15{fill:#D3101D;}
	.st16{fill:#333333;}
	.st17{fill:#29ABE2;}
	.st18{fill:#39B54A;}
	.st19{fill:#0083FD;}
	.st20{fill:#FAFCFE;}
</style>
<g>
	<path class="st19" d="M45.37,451.89c2.61-6.97,4.72-12.64,6.84-18.3c8.32-22.14,16.56-44.32,25.05-66.4
		c1.35-3.52,0.99-6.08-0.95-9.21c-21.77-35.12-32.14-73.42-30.85-114.7c1.47-47.15,17.56-88.94,47.93-124.98
		c31.88-37.82,72.3-61.72,121.09-70c59.99-10.18,114.88,3.06,162.44,41.24c54.06,43.4,80.49,100.61,77.5,169.95
		c-2.67,61.94-29,113.28-78.12,150.97c-66.73,51.2-139.54,57.24-215.99,23.34c-7.71-3.42-14.84-8.24-22.03-12.73
		c-2.86-1.78-5.18-2.11-8.39-0.88c-26.21,10.01-52.49,19.82-78.76,29.69C49.64,450.45,48.11,450.94,45.37,451.89z M371.59,202.45
		c-0.27-0.41-0.54-0.82-0.81-1.23c-1.72,0.63-3.52,1.1-5.14,1.92c-25.27,12.86-50.54,25.72-75.72,38.75
		c-3.04,1.57-4.87,1.47-7.39-1.02c-15.24-14.99-30.68-29.78-46.06-44.62c-1.05-1.02-2.18-1.95-3.55-3.18
		c-35.25,36.92-70.23,73.56-105.21,110.2c2.77-0.31,5.24-1.23,7.52-2.48c27-14.77,54-29.54,80.92-44.45
		c2.97-1.64,4.81-1.72,7.4,0.78c11.69,11.24,23.61,22.25,35.46,33.32c5.72,5.35,11.48,10.66,17.5,16.25
		C308.41,271.72,340,237.08,371.59,202.45z"/>
	<path class="st20" d="M371.59,202.45c-31.59,34.63-63.18,69.27-95.08,104.23c-6.02-5.59-11.77-10.9-17.5-16.25
		c-11.85-11.08-23.77-22.08-35.46-33.32c-2.6-2.5-4.44-2.42-7.4-0.78c-26.92,14.92-53.92,29.69-80.92,44.45
		c-2.28,1.25-4.75,2.17-7.52,2.48c34.98-36.64,69.97-73.28,105.21-110.2c1.37,1.22,2.5,2.16,3.55,3.18
		c15.38,14.85,30.82,29.64,46.06,44.62c2.53,2.48,4.35,2.59,7.39,1.02c25.18-13.03,50.45-25.88,75.72-38.75
		c1.62-0.82,3.42-1.29,5.14-1.92C371.05,201.63,371.32,202.04,371.59,202.45z"/>
</g>
</svg>
