<?xml version="1.0" encoding="utf-8"?>
<!-- Generator: Adobe Illustrator 26.0.1, SVG Export Plug-In . SVG Version: 6.00 Build 0)  -->
<svg version="1.1" id="Layer_1" xmlns="http://www.w3.org/2000/svg" xmlns:xlink="http://www.w3.org/1999/xlink" x="0px" y="0px"
	 viewBox="0 0 500 500" style="enable-background:new 0 0 500 500;" xml:space="preserve">
<style type="text/css">
	.st0{fill:#CCCCCC;}
	.st1{fill:#999999;}
	.st2{fill:#F2F2F2;}
	.st3{fill:#00A7C4;}
	.st4{fill:#FFFFFF;}
	.st5{fill:#00A7C4;stroke:#F2F2F2;stroke-width:2;stroke-miterlimit:10;}
	.st6{fill:none;stroke:#F2F2F2;stroke-width:37.1693;stroke-miterlimit:10;}
</style>
<g>
	<path class="st3" d="M365.87,425.15l-8.75-1.83c-15.69-3.28-31.6,4.53-38.6,18.95l-3.9,8.04c-10.44,21.51-38.91,26.42-55.96,9.65
		l-6.37-6.27c-11.42-11.24-29.03-13.27-42.71-4.93l-7.63,4.65c-20.41,12.45-47.02,1.19-52.29-22.14l-1.97-8.72
		c-3.53-15.63-17.25-26.86-33.27-27.24l-8.94-0.21c-23.9-0.56-40.2-24.42-32.02-46.89l3.06-8.4c5.48-15.06,0.01-31.92-13.26-40.9
		l-7.4-5.01c-19.8-13.4-20.61-42.28-1.59-56.76l7.11-5.41c12.75-9.71,17.27-26.85,10.96-41.58l-3.52-8.22
		c-9.42-21.98,5.52-46.71,29.35-48.61l8.91-0.71c15.98-1.27,29.04-13.25,31.69-29.05l1.48-8.82c3.96-23.58,29.9-36.31,50.97-25.02
		l7.88,4.22c14.13,7.57,31.59,4.56,42.37-7.31l6.01-6.62c16.08-17.7,44.78-14.39,56.41,6.51l4.35,7.81
		c7.79,14,24.11,20.91,39.59,16.76l8.63-2.32c23.09-6.19,45.45,12.11,43.94,35.97l-0.57,8.92c-1.01,16,8.98,30.63,24.25,35.51
		l8.52,2.72c22.78,7.27,31.69,34.76,17.51,54.01l-5.3,7.2c-9.5,12.91-9.01,30.62,1.2,42.98l5.69,6.89
		c15.23,18.43,7.87,46.37-14.47,54.91l-8.35,3.19c-14.97,5.72-24.13,20.89-22.23,36.81l1.06,8.88
		C410.58,410.52,389.28,430.04,365.87,425.15z"/>
	<circle class="st2" cx="250.46" cy="259.29" r="163.86"/>
	<circle class="st3" cx="250.46" cy="259.29" r="139.78"/>
	<polyline class="st6" points="168.79,282.13 231.9,328.63 332.12,186.12 	"/>
</g>
</svg>
