<?xml version="1.0" encoding="utf-8"?>
<!-- Generator: Adobe Illustrator 26.0.1, SVG Export Plug-In . SVG Version: 6.00 Build 0)  -->
<svg version="1.1" id="Layer_1" xmlns="http://www.w3.org/2000/svg" xmlns:xlink="http://www.w3.org/1999/xlink" x="0px" y="0px"
	 viewBox="0 0 500 500" style="enable-background:new 0 0 500 500;" xml:space="preserve">
<style type="text/css">
	.st0{fill:#CCCCCC;}
	.st1{fill:#999999;}
	.st2{fill:#F2F2F2;}
	.st3{fill:#00A7C4;}
	.st4{fill:#FFFFFF;}
	.st5{fill:#00A7C4;stroke:#F2F2F2;stroke-width:2;stroke-miterlimit:10;}
</style>
<path class="st3" d="M426,242.24c0-25.9-8.21-46.23-24.4-60.44c-26.89-23.6-66.38-20.74-73.58-19.99H115.44v29.38h213.4l1.86-0.12
	c0.33-0.04,32.68-3.83,51.61,12.89c9.63,8.51,14.31,21.03,14.31,38.52c0,0.23,0.08,23.35-14.56,38.15
	c-8.66,8.76-21.31,13.21-37.58,13.22h-218.1l16.25-31.16l-68.21,51.5L146,354.4l-21-31.16h219.48c24.57-0.02,44.33-7.49,58.73-22.21
	C426.48,277.25,426.02,243.36,426,242.24z"/>
</svg>
