<?xml version="1.0" encoding="utf-8"?>
<!-- Generator: Adobe Illustrator 26.0.1, SVG Export Plug-In . SVG Version: 6.00 Build 0)  -->
<svg version="1.1" id="Layer_1" xmlns="http://www.w3.org/2000/svg" xmlns:xlink="http://www.w3.org/1999/xlink" x="0px" y="0px"
	 viewBox="0 0 500 500" style="enable-background:new 0 0 500 500;" xml:space="preserve">
<style type="text/css">
	.st0{fill:#CCCCCC;}
	.st1{fill:#999999;}
	.st2{fill:#F2F2F2;}
	.st3{fill:#00A7C4;}
	.st4{fill:#FFFFFF;}
	.st5{fill:#00A7C4;stroke:#F2F2F2;stroke-width:2;stroke-miterlimit:10;}
	.st6{fill:none;stroke:#F2F2F2;stroke-width:9.594;stroke-miterlimit:10;}
	.st7{fill:none;stroke:#00A99D;stroke-width:5;stroke-miterlimit:10;}
	.st8{fill:#00A99D;}
	.st9{fill:none;stroke:#00A99D;stroke-width:1.1092;stroke-miterlimit:10;}
	.st10{fill:none;stroke:#00A99D;stroke-width:2.64;stroke-miterlimit:10;}
	.st11{fill:#139BF6;}
	.st12{fill:url(#SVGID_1_);}
	.st13{fill:#D4101D;}
	.st14{fill:#BA1A25;}
	.st15{fill:#D3101D;}
	.st16{fill:#333333;}
</style>
<g>
	<path class="st16" d="M250,463.4L250,463.4c-117.86,0-213.4-95.54-213.4-213.4v0c0-117.86,95.54-213.4,213.4-213.4h0
		c117.86,0,213.4,95.54,213.4,213.4v0C463.4,367.86,367.86,463.4,250,463.4z"/>
	<g>
		<path class="st4" d="M243.4,264.73c-9.87,1.3-19.86,1.42-29.13,4.09c-21.36,6.14-33.43,28.4-29,51.35
			c4.29,22.26,22.55,36.1,45.69,34.65c22.38-1.4,41.09-19.09,41.33-41.02c0.8-71.86,0.95-143.72,1.34-215.58
			c0.02-3.33,0-6.65,0-10.39c18.19,0,35.52,0,53.24,0c6.13,44.7,26.47,76.21,76.78,80.48c0,18.08,0,36.1,0,55.26
			c-26.9-0.99-51.73-8.96-75.2-25.6c-0.21,4.12-0.49,7.09-0.49,10.05c-0.03,32.3,0.2,64.6-0.08,96.9
			c-0.29,32.8-10,62.04-35.07,84.47c-22.23,19.9-49.05,25.83-77.78,21.39c-43.1-6.65-71.76-31.26-83.93-73.34
			c-14.83-51.27,12.67-107.7,60.43-125.74c15.16-5.73,30.92-6.62,46.84-5.09c1.8,0.17,4.78,2.88,4.81,4.46
			C243.52,229.21,243.4,247.35,243.4,264.73z"/>
	</g>
</g>
</svg>
