<?xml version="1.0" encoding="utf-8"?>
<!-- Generator: Adobe Illustrator 26.0.1, SVG Export Plug-In . SVG Version: 6.00 Build 0)  -->
<svg version="1.1" id="Layer_1" xmlns="http://www.w3.org/2000/svg" xmlns:xlink="http://www.w3.org/1999/xlink" x="0px" y="0px"
	 viewBox="0 0 500 500" style="enable-background:new 0 0 500 500;" xml:space="preserve">
<style type="text/css">
	.st0{fill:#CCCCCC;}
	.st1{fill:#999999;}
	.st2{fill:#F2F2F2;}
	.st3{fill:#00A7C4;}
	.st4{fill:#FFFFFF;}
	.st5{fill:#00A7C4;stroke:#F2F2F2;stroke-width:2;stroke-miterlimit:10;}
	.st6{fill:none;stroke:#F2F2F2;stroke-width:9.594;stroke-miterlimit:10;}
	.st7{fill:none;stroke:#00A99D;stroke-width:5;stroke-miterlimit:10;}
	.st8{fill:#00A99D;}
	.st9{fill:none;stroke:#00A99D;stroke-width:1.1092;stroke-miterlimit:10;}
	.st10{fill:none;stroke:#00A99D;stroke-width:2.64;stroke-miterlimit:10;}
	.st11{fill:#139BF6;}
	.st12{fill:url(#SVGID_1_);}
	.st13{fill:#D4101D;}
	.st14{fill:#BA1A25;}
	.st15{fill:#D3101D;}
	.st16{fill:#333333;}
</style>
<g>
	<path class="st16" d="M250,469L250,469c-120.95,0-219-98.05-219-219v0c0-120.95,98.05-219,219-219h0c120.95,0,219,98.05,219,219v0
		C469,370.95,370.95,469,250,469z"/>
	<g>
		<path class="st4" d="M381.86,384.83c-0.77,0-1.17,0-1.56,0c-25.09,0-50.19-0.01-75.28,0.03c-1.22,0-1.96-0.35-2.65-1.36
			c-14.38-21.02-28.8-42.02-43.21-63.02c-9.07-13.21-18.14-26.42-27.21-39.63c-0.14-0.2-0.32-0.37-0.56-0.66
			c-2.61,3.03-5.18,6.03-7.76,9.02c-20.25,23.54-40.5,47.08-60.74,70.63c-6.83,7.95-13.67,15.89-20.47,23.87
			c-0.7,0.83-1.41,1.15-2.5,1.15c-7.12-0.05-14.25-0.03-21.77-0.03c34.43-40.05,68.67-79.86,102.95-119.74
			c-34.3-49.94-68.53-99.79-102.88-149.81c0.59-0.05,1-0.11,1.41-0.11c25.24,0,50.48,0.01,75.73-0.04c1.14,0,1.66,0.51,2.21,1.31
			c8.08,11.79,16.17,23.57,24.26,35.36c13.3,19.37,26.6,38.73,39.9,58.09c0.97,1.42,1.95,2.83,3.03,4.38
			c2.03-2.35,3.97-4.57,5.89-6.81c21.34-24.82,42.68-49.64,64.01-74.46c4.84-5.62,9.65-11.26,14.53-16.86
			c0.42-0.48,1.19-0.94,1.8-0.94c7.08-0.07,14.16-0.04,21.23-0.04c0.23,0,0.46,0.04,0.97,0.08c-32.78,38.13-65.41,76.08-98.11,114.1
			C310.65,281.14,346.17,332.86,381.86,384.83z M149.85,132.7c0.29,0.45,0.43,0.69,0.59,0.92c13.03,18.65,26.07,37.29,39.1,55.94
			c23.11,33.08,46.23,66.16,69.34,99.24c18.21,26.07,36.43,52.13,54.61,78.22c0.59,0.85,1.2,1.11,2.18,1.1
			c10.89-0.03,21.78-0.01,32.67-0.01c0.46,0,0.91,0,1.61,0c-0.44-0.66-0.67-1.04-0.92-1.4c-15.55-22.25-31.11-44.5-46.66-66.76
			c-15.69-22.46-31.36-44.93-47.05-67.39c-15.66-22.42-31.33-44.83-47-67.25c-7.34-10.5-14.67-21-22.04-31.48
			c-0.35-0.49-1.01-1.08-1.53-1.08C173.22,132.69,161.68,132.7,149.85,132.7z"/>
	</g>
</g>
</svg>
