<?xml version="1.0" encoding="utf-8"?>
<!-- Generator: Adobe Illustrator 26.0.1, SVG Export Plug-In . SVG Version: 6.00 Build 0)  -->
<svg version="1.1" id="Layer_1" xmlns="http://www.w3.org/2000/svg" xmlns:xlink="http://www.w3.org/1999/xlink" x="0px" y="0px"
	 viewBox="0 0 500 500" style="enable-background:new 0 0 500 500;" xml:space="preserve">
<style type="text/css">
	.st0{fill:#CCCCCC;}
	.st1{fill:#999999;}
	.st2{fill:#F2F2F2;}
	.st3{fill:#00A7C4;}
	.st4{fill:#FFFFFF;}
	.st5{fill:#00A7C4;stroke:#F2F2F2;stroke-width:2;stroke-miterlimit:10;}
	.st6{fill:none;stroke:#F2F2F2;stroke-width:9.594;stroke-miterlimit:10;}
	.st7{fill:none;stroke:#00A99D;stroke-width:5;stroke-miterlimit:10;}
	.st8{fill:#00A99D;}
	.st9{fill:none;stroke:#00A99D;stroke-width:1.1092;stroke-miterlimit:10;}
	.st10{fill:none;stroke:#00A99D;stroke-width:2.64;stroke-miterlimit:10;}
	.st11{fill:#139BF6;}
	.st12{fill:url(#SVGID_1_);}
	.st13{fill:#D4101D;}
	.st14{fill:#BA1A25;}
	.st15{fill:#D3101D;}
	.st16{fill:#333333;}
	.st17{fill:#29ABE2;}
	.st18{fill:#39B54A;}
</style>
<g>
	<path class="st18" d="M67.4,432.42c6-21.38,10.97-42.01,17.67-62.06c5.12-15.34,7.69-29.6-3.44-43.24
		C32.18,216.79,97.01,91.53,214.09,68.6c102.64-20.1,199.44,45.83,217.98,148.94c18.77,104.43-51.86,196.33-147.23,214.08
		c-44.83,8.34-87.17,1.22-127.04-20.97c-2.33-1.29-5.93-1.58-8.54-0.88c-25.3,6.85-50.52,14.01-75.76,21.07
		C71.8,431.32,70.08,431.73,67.4,432.42z M94.08,405.57c3.52-0.76,5.58-1.08,7.58-1.64c16.25-4.56,32.53-9.03,48.71-13.85
		c4.52-1.34,8.02-0.82,12.09,1.68c35.08,21.48,73.11,29.21,113.75,22.93c90.81-14.04,153.16-100.08,138.41-191.38
		C402.08,145.65,336.9,85.84,254.48,83.28c-36.44-1.13-70.19,8.73-99.89,30.12c-47.54,34.24-71.4,81.17-71.31,139.64
		c0.04,30.61,8.85,59.18,25.31,85.16c2.22,3.5,2.7,6.62,1.46,10.6c-3,9.59-5.56,19.32-8.26,29.01
		C99.33,386.57,96.91,395.35,94.08,405.57z"/>
	<path class="st18" d="M313.53,352.77c-18.43-1.07-35-6.3-50.46-14.71c-45.03-24.5-79.35-59.15-99.16-106.96
		c-5.52-13.33-8.95-27.36-6.05-42.07c2.5-12.67,10.13-22.1,19.82-29.94c6.06-4.9,15.05-4.51,20.84,1.02
		c10.28,9.8,20.3,19.89,30.18,30.1c4.84,5,4.7,12.38-0.01,17.61c-3.85,4.27-7.96,8.31-12.14,12.27c-3.7,3.5-4.07,7.3-1.96,11.71
		c14,29.16,35.59,50.64,64.89,64.38c3.95,1.85,7.23,1.23,10.26-1.85c4.03-4.11,8.08-8.2,12.26-12.15
		c5.93-5.59,12.94-5.68,18.73-0.03c9.65,9.42,19.21,18.95,28.61,28.61c6.2,6.38,7.23,15.04,2.17,21.64
		C341.83,345.02,329.04,352.22,313.53,352.77z"/>
</g>
</svg>
