<?xml version="1.0" encoding="utf-8"?>
<!-- Generator: Adobe Illustrator 26.0.1, SVG Export Plug-In . SVG Version: 6.00 Build 0)  -->
<svg version="1.1" id="Layer_1" xmlns="http://www.w3.org/2000/svg" xmlns:xlink="http://www.w3.org/1999/xlink" x="0px" y="0px"
	 viewBox="0 0 500 500" style="enable-background:new 0 0 500 500;" xml:space="preserve">
<style type="text/css">
	.st0{fill:#CCCCCC;}
	.st1{fill:#999999;}
	.st2{fill:#F2F2F2;}
	.st3{display:none;fill:none;stroke:#CCFFFF;stroke-width:0.25;stroke-miterlimit:10;}
</style>
<path class="st2" d="M250,435.04L90.08,275.12c-3.12-3.12-6.19-6.37-9.14-9.68c-52.78-59.27-33-127.57,7.72-165.94
	c40.8-38.44,108.08-51.26,161.34-4.6c53.27-46.68,120.54-33.84,161.34,4.6c40.72,38.37,60.5,106.66,7.72,165.94
	c-2.95,3.32-6.03,6.58-9.15,9.69L250,435.04z M173.14,93.53c-24.62,0-47.89,10.91-64.8,26.85c-31.98,30.13-46.22,80.77-5.97,125.98
	c2.58,2.9,5.27,5.75,8,8.48L250,394.48l139.63-139.63c2.73-2.73,5.42-5.58,8-8.48c40.26-45.21,26.01-95.85-5.97-125.98
	c-31.54-29.72-85.19-41.95-128.44,1.43L250,135.09l-13.23-13.28C216.72,101.69,194.42,93.53,173.14,93.53z"/>
<line class="st3" x1="250" y1="8" x2="250" y2="479"/>
<line class="st3" x1="50" y1="250" x2="500" y2="250"/>
</svg>
