<?xml version="1.0" encoding="utf-8"?>
<!-- Generator: Adobe Illustrator 26.0.1, SVG Export Plug-In . SVG Version: 6.00 Build 0)  -->
<svg version="1.1" id="Layer_1" xmlns="http://www.w3.org/2000/svg" xmlns:xlink="http://www.w3.org/1999/xlink" x="0px" y="0px"
	 viewBox="0 0 500 500" style="enable-background:new 0 0 500 500;" xml:space="preserve">
<style type="text/css">
	.st0{fill:#CCCCCC;}
	.st1{fill:#999999;}
	.st2{fill:#F2F2F2;}
	.st3{fill:#00A7C4;}
	.st4{fill:#FFFFFF;}
	.st5{fill:#00A7C4;stroke:#F2F2F2;stroke-width:2;stroke-miterlimit:10;}
	.st6{fill:none;stroke:#F2F2F2;stroke-width:9.594;stroke-miterlimit:10;}
	.st7{fill:none;stroke:#00A99D;stroke-width:5;stroke-miterlimit:10;}
	.st8{fill:#00A99D;}
	.st9{fill:none;stroke:#00A99D;stroke-width:1.1092;stroke-miterlimit:10;}
	.st10{fill:none;stroke:#00A99D;stroke-width:2.64;stroke-miterlimit:10;}
	.st11{fill:#139BF6;}
	.st12{fill:url(#SVGID_1_);}
	.st13{fill:#D4101D;}
	.st14{fill:#BA1A25;}
	.st15{fill:#D3101D;}
</style>
<g>
	<path class="st13" d="M249.88,456C135.93,455.96,43.93,363.21,44,249.89C44.07,136.44,136.3,43.93,250.12,44
		C363.81,44.07,456.07,136.49,456,250.12C455.93,363.9,363.44,456.12,249.88,456z M250.04,169.26c-25.12,0-50.24-0.01-75.35,0.02
		c-2.49,0-5.01,0.1-7.47,0.44c-10.91,1.53-19.82,6.7-26.71,15.25c-6.25,7.76-9.14,16.72-9.14,26.66c0.01,27.32,0,54.65,0.01,81.97
		c0,1.51,0.07,3.02,0.23,4.52c1.64,14.92,9.13,25.95,22.25,33.14c6.35,3.48,13.26,4.74,20.48,4.73c38.43-0.04,76.87-0.02,115.3-0.02
		c12.15,0,24.3-0.03,36.46,0.01c6.86,0.03,13.45-1.2,19.5-4.45c14.9-8.01,22.83-20.55,22.95-37.5c0.21-27.61,0.06-55.23,0.04-82.85
		c0-1.62-0.08-3.26-0.29-4.87c-1.85-14.53-9.29-25.3-22.09-32.32c-6.35-3.48-13.25-4.78-20.47-4.77
		C300.51,169.29,275.28,169.26,250.04,169.26z"/>
	<path class="st4" d="M250.04,169.26c25.23,0,50.47,0.03,75.7-0.02c7.22-0.01,14.12,1.29,20.47,4.77
		c12.8,7.02,20.24,17.79,22.09,32.32c0.21,1.61,0.28,3.24,0.29,4.87c0.02,27.62,0.16,55.23-0.04,82.85
		c-0.13,16.95-8.05,29.48-22.95,37.5c-6.05,3.25-12.64,4.48-19.5,4.45c-12.15-0.04-24.3-0.01-36.46-0.01
		c-38.43,0-76.87-0.02-115.3,0.02c-7.22,0.01-14.13-1.26-20.48-4.73c-13.11-7.18-20.61-18.22-22.25-33.14
		c-0.16-1.5-0.23-3.01-0.23-4.52c-0.01-27.32,0-54.65-0.01-81.97c0-9.94,2.89-18.9,9.14-26.66c6.89-8.55,15.8-13.72,26.71-15.25
		c2.46-0.35,4.98-0.44,7.47-0.44C199.81,169.25,224.93,169.26,250.04,169.26z M224.72,285.6c21.15-11.28,42.06-22.42,63.17-33.68
		c-21.01-10.91-41.79-21.71-62.87-32.66C224.91,241.48,224.82,263.4,224.72,285.6z"/>
	<path class="st14" d="M224.72,285.6c0.1-22.2,0.2-44.13,0.29-66.34c21.09,10.95,41.87,21.75,62.87,32.66
		C266.78,263.18,245.87,274.33,224.72,285.6z M227.03,221.45c-1.2,0.45-1.13,1.34-1.14,2.22c-0.2,16.72,0.42,33.44-0.33,50.16
		c-0.1,2.26-0.01,4.53-0.01,6.8c0,0.58-0.04,1.17,0.02,1.74c0.1,1.04,0.53,1.27,1.53,0.87c0.32-0.13,0.63-0.29,0.94-0.46
		c3.38-1.8,6.75-3.61,10.12-5.41c3.68-1.96,7.37-3.92,11.06-5.88c5.27-2.81,10.53-5.63,15.81-8.43c6.13-3.25,12.28-6.48,18.4-9.74
		c0.53-0.28,0.97-0.72,1.72-1.29c-1.04-0.71-1.79-1.34-2.63-1.77c-3.28-1.71-6.61-3.33-9.9-5.04c-5.14-2.67-10.24-5.41-15.38-8.08
		c-3.79-1.97-7.63-3.85-11.42-5.82C239.52,228.03,233.24,224.71,227.03,221.45z"/>
	<path class="st15" d="M227.03,221.45c6.21,3.26,12.49,6.58,18.8,9.87c3.79,1.97,7.63,3.85,11.42,5.82
		c5.14,2.67,10.24,5.41,15.38,8.08c3.28,1.71,6.62,3.33,9.9,5.04c0.84,0.44,1.59,1.06,2.63,1.77c-0.75,0.57-1.19,1.01-1.72,1.29
		c-6.13,3.26-12.27,6.49-18.4,9.74c-5.28,2.8-10.54,5.62-15.81,8.43c-3.68,1.96-7.38,3.91-11.06,5.88
		c-3.38,1.8-6.75,3.61-10.12,5.41c-0.31,0.16-0.62,0.33-0.94,0.46c-1,0.4-1.44,0.17-1.53-0.87c-0.05-0.58-0.02-1.16-0.02-1.74
		c0-2.27-0.09-4.54,0.01-6.8c0.75-16.72,0.12-33.44,0.33-50.16C225.9,222.79,225.83,221.9,227.03,221.45z"/>
</g>
</svg>
